<svg width="1163" height="1464" viewBox="0 0 1163 1464" fill="none" xmlns="http://www.w3.org/2000/svg">
<path d="M371.755 3.10444e-05C311.319 3.37987e-05 262.326 48.1422 262.326 107.529V564.388C262.326 594.082 286.823 618.153 317.041 618.153H348.63C378.848 618.153 403.344 594.082 403.344 564.388V246.098C403.344 186.711 452.337 138.569 512.773 138.569H911.923C972.359 138.569 1021.35 186.711 1021.35 246.098V771.494C1021.35 809.296 1011.21 846.431 991.952 879.155L710.089 1358.09C697.148 1380.08 701.634 1407.97 720.846 1424.96L749.046 1449.91C774.652 1472.56 814.933 1466.6 832.614 1437.54L1108.05 984.892C1143.57 926.519 1162.33 859.779 1162.34 791.767L1162.37 107.533C1162.37 48.1449 1113.37 -2.75441e-06 1052.94 0L371.755 3.10444e-05Z" fill="#99DFFF"/>
<path d="M867.822 671.087C867.822 641.394 843.325 617.323 813.107 617.323H782.234C752.016 617.323 727.52 641.394 727.52 671.087V818.946C727.52 832.57 722.256 845.686 712.793 855.643L290.465 1300C269.84 1321.7 271.023 1355.72 293.107 1375.99L316.302 1397.27C338.561 1417.7 373.51 1416.33 394.048 1394.24L853.508 899.896C862.716 889.989 867.822 877.056 867.822 863.639V671.087Z" fill="#99DFFF"/>
<path d="M586.139 671.682C586.475 641.758 561.882 617.323 531.427 617.323H501.28C471.062 617.323 446.566 641.394 446.566 671.087V792.643C446.566 812.696 435.209 831.082 417.106 840.337L29.4679 1038.53C-3.33224 1055.3 -10.1121 1098.54 16.0313 1124.24L36.7219 1144.57C54.0561 1161.6 80.8061 1165.23 102.186 1153.44L556.116 903.172C573.185 893.761 583.838 876.109 584.054 856.878L586.139 671.682Z" fill="#99DFFF"/>
</svg>
