<svg width="2132" height="592" viewBox="0 0 2132 592" fill="none" xmlns="http://www.w3.org/2000/svg">
<path d="M523.675 238.741L458.485 128.091C458.385 127.925 458.331 127.733 458.329 127.537C458.327 127.34 458.378 127.145 458.475 126.971C468.355 109.698 478.478 94.3447 488.845 80.9113C496.095 71.5113 504.525 61.7813 513.685 53.7413C527.185 41.8913 539.735 32.1413 555.565 23.6513C565.438 18.358 574.961 14.1947 584.135 11.1613C604.285 4.50135 624.305 0.381336 645.655 0.211336C667.815 0.0446689 684.898 0.0613233 696.905 0.261323C708.378 0.461323 718.848 1.60134 728.315 3.68134C749.195 8.26134 767.685 14.4613 785.915 24.5113C789.765 26.6213 797.375 30.7313 801.925 33.8813C818.238 45.1413 832.511 58.0613 844.745 72.6413C845.845 73.948 848.655 77.5947 853.175 83.5813C855.835 87.0947 858.435 90.8813 860.975 94.9413C870.515 110.191 881.115 126.621 890.485 143.071C901.355 162.161 913.965 181.871 923.665 198.891C930.135 210.241 938.915 223.711 945.485 235.481C950.015 243.571 956.445 253.421 960.175 259.781C976.285 287.241 983.255 299.441 995.975 320.111C1000.53 327.511 1005.94 336.658 1012.22 347.551C1015.46 353.185 1018.73 358.538 1022.01 363.611C1025.32 368.721 1030.66 378.971 1034.92 385.211C1035.78 386.465 1042.63 397.928 1055.48 419.601C1061.42 429.621 1065.79 439.455 1068.57 449.101C1075.82 474.188 1074.51 498.748 1064.64 522.781C1062.56 527.848 1059.49 533.731 1055.41 540.431C1047.09 554.121 1035.49 565.461 1022.73 573.551C1005.26 584.631 984.845 591.111 963.405 591.121C918.425 591.135 877.311 591.141 840.065 591.141C820.851 591.148 808.571 590.968 803.225 590.601C791.251 589.795 779.141 587.828 766.895 584.701C761.688 583.375 754.745 581.078 746.065 577.811C732.295 572.641 719.965 565.011 707.245 556.431C701.398 552.491 695.551 547.835 689.705 542.461C678.891 532.528 669.195 522.321 660.615 511.841C660.569 511.783 660.511 511.736 660.445 511.703C660.378 511.671 660.305 511.653 660.231 511.652C660.156 511.651 660.082 511.667 660.014 511.698C659.945 511.729 659.884 511.774 659.835 511.831C650.768 522.445 640.981 532.438 630.475 541.811C617.145 553.691 603.975 562.421 587.685 570.921C579.618 575.135 571.641 578.521 563.755 581.081C544.108 587.461 524.741 590.785 505.655 591.051C503.641 591.078 465.678 591.125 391.765 591.191C374.171 591.211 361.618 590.701 354.105 589.661C332.805 586.711 311.965 580.841 292.755 571.411C256.335 553.541 226.075 524.521 205.195 491.461C193.935 473.641 181.865 451.441 172.925 437.781C170.135 433.521 168.625 429.651 165.925 425.741C165.665 425.355 164.688 423.718 162.995 420.831C140.461 382.285 123.171 352.698 111.125 332.071C105.605 322.611 101.145 314.231 95.6448 305.521C94.0848 303.061 91.6548 299.001 88.3548 293.341C71.6248 264.661 62.2448 248.251 54.2248 235.331C52.4781 232.525 50.5781 229.331 48.5248 225.751C36.3581 204.558 25.2781 185.451 15.2848 168.431C7.47812 155.145 2.66144 140.571 0.834778 124.711C-2.53189 95.458 4.28479 68.9247 21.2848 45.1113C26.3315 38.038 31.5081 32.2247 36.8148 27.6713C50.4948 15.9413 66.2048 6.91135 83.6448 2.72135C86.5248 2.03468 90.6814 1.38801 96.1148 0.781343C100.228 0.321343 104.428 0.0913404 108.715 0.0913404C148.701 0.11134 176.898 0.0879998 193.305 0.0213331C219.785 -0.0853336 236.855 0.208005 244.515 0.901338C273.575 3.548 301.148 12.178 327.235 26.7913C342.648 35.4247 356.461 45.9447 368.675 58.3513C388.415 78.3913 404.495 102.671 417.845 126.871C420.005 130.791 423.155 135.371 425.625 139.681C431.438 149.801 440.778 165.841 453.645 187.801C464.725 206.721 476.415 227.091 489.795 249.571C491.888 253.091 495.855 259.965 501.695 270.191C509.605 284.071 519.385 299.921 526.805 313.181C530.598 319.955 534.948 327.418 539.855 335.571C548.521 349.971 557.581 365.465 567.035 382.051C567.186 382.319 567.264 382.622 567.261 382.929C567.257 383.236 567.172 383.537 567.015 383.801C564.255 388.375 560.918 394.221 557.005 401.341C549.851 414.341 540.035 424.691 527.555 432.391C516.861 438.991 505.058 442.341 492.145 442.441C484.398 442.495 477.598 442.388 471.745 442.121C471.427 442.108 471.118 441.989 470.865 441.781C470.051 441.095 469.355 440.205 468.775 439.111C463.448 429.071 457.548 419.108 451.075 409.221C449.585 406.941 448.495 404.251 447.075 401.811C434.955 380.845 425.828 365.081 419.695 354.521C413.561 343.948 404.678 328.668 393.045 308.681C368.738 266.928 344.048 225.011 318.975 182.931C311.375 170.181 303.995 158.321 294.645 147.571C279.655 130.311 257.175 119.261 234.475 115.131C229.381 114.205 221.985 113.745 212.285 113.751C185.338 113.771 158.468 113.781 131.675 113.781C125.395 113.781 122.015 116.931 121.535 123.231C121.435 124.565 122.251 126.731 123.985 129.731C126.671 134.371 128.988 138.445 130.935 141.951C133.935 147.351 137.141 152.891 140.555 158.571C143.741 163.885 154.425 181.981 172.605 212.861C177.391 220.995 181.098 227.328 183.725 231.861C191.931 246.041 200.165 260.221 208.425 274.401C213.858 283.741 219.771 293.778 226.165 304.511C240.135 327.971 252.705 350.011 266.065 371.851C267.838 374.745 273.715 384.815 283.695 402.061C286.048 406.128 288.045 409.428 289.685 411.961C293.575 417.961 298.565 426.051 302.965 432.281C311.705 444.681 322.555 454.061 336.785 462.631C354.385 473.241 374.925 477.561 395.355 477.481C401.688 477.461 431.288 477.451 484.155 477.451C492.148 477.451 498.071 477.241 501.925 476.821C519.385 474.908 535.298 468.978 549.665 459.031C560.305 451.671 569.055 443.408 575.915 434.241C579.665 429.231 584.055 422.641 587.635 417.011C590.001 413.285 596.415 402.415 606.875 384.401C607.748 382.895 608.348 381.851 608.675 381.271C614.661 370.551 624.478 353.658 638.125 330.591C640.291 326.931 642.471 323.068 644.665 319.001C647.415 313.881 650.205 309.731 653.675 303.711C660.321 292.165 667.775 279.388 676.035 265.381C683.141 253.321 687.715 245.481 689.755 241.861C698.961 225.515 705.148 214.785 708.315 209.671C709.321 208.051 713.125 201.531 719.725 190.111C724.065 182.605 727.895 176.105 731.215 170.611C731.26 170.537 731.322 170.474 731.396 170.428C731.469 170.382 731.553 170.354 731.638 170.346C731.724 170.338 731.811 170.351 731.89 170.383C731.969 170.415 732.039 170.466 732.095 170.531C737.081 176.251 741.618 182.638 745.705 189.691C757.065 209.251 767.955 226.471 779.015 245.361C788.315 261.235 793.738 270.328 795.285 272.641C796.685 274.735 797.941 276.731 799.055 278.631C799.137 278.771 799.18 278.93 799.18 279.091C799.18 279.253 799.137 279.412 799.055 279.551L726.195 404.601C726.11 404.746 726.055 404.907 726.034 405.074C726.014 405.241 726.027 405.41 726.075 405.571C726.388 406.658 726.828 407.681 727.395 408.641C730.688 414.208 735.045 420.975 740.465 428.941C747.145 438.761 753.915 446.981 762.895 453.831C769.455 458.851 777.665 464.221 785.225 467.401C801.245 474.141 816.978 477.515 832.425 477.521C899.098 477.548 934.965 477.508 940.025 477.401C941.045 477.381 942.375 477.095 944.015 476.541C951.475 474.041 950.975 466.691 947.845 461.041C945.571 456.935 943.871 453.968 942.745 452.141C928.515 429.101 915.225 405.861 901.085 382.981C894.345 372.071 888.555 361.711 880.525 348.301C856.911 308.841 835.985 273.711 817.745 242.911C814.745 237.841 811.115 232.541 808.555 228.091C797.175 208.398 790.731 197.335 789.225 194.901C780.535 180.821 772.285 166.341 762.995 154.661C758.468 148.968 752.595 142.951 745.375 136.611C741.835 133.511 736.785 130.421 732.895 128.061C716.605 118.181 699.005 113.731 679.915 113.781C675.375 113.801 668.165 113.751 661.565 113.661C635.838 113.308 613.131 120.871 593.445 136.351C587.538 140.998 581.858 146.931 576.405 154.151C570.751 161.618 566.128 168.438 562.535 174.611C545.988 202.998 536.995 218.335 535.555 220.621C534.828 221.761 531.348 227.798 525.115 238.731C525.043 238.859 524.939 238.965 524.813 239.039C524.687 239.113 524.544 239.152 524.398 239.153C524.252 239.154 524.108 239.117 523.981 239.044C523.854 238.972 523.748 238.868 523.675 238.741Z" fill="white"/>
<path fill-rule="evenodd" clip-rule="evenodd" d="M1546.74 346.991L1580.15 447.93L1573.07 461.991L1552.31 442.406L1540.15 412.777L1546.74 346.991Z" fill="white" stroke="white"/>
<path d="M1352.05 47.7511V538.141C1352.05 538.345 1351.97 538.541 1351.83 538.686C1351.68 538.83 1351.48 538.911 1351.27 538.911H1277.81C1277.52 538.911 1277.24 538.795 1277.04 538.589C1276.83 538.383 1276.71 538.103 1276.71 537.811C1276.6 457.318 1276.69 332.768 1276.99 164.161C1277 162.628 1277.02 160.924 1277.04 159.051C1277.05 158.691 1276.88 158.481 1276.53 158.421C1276.19 158.354 1275.91 158.464 1275.67 158.751C1266.31 170.141 1255.68 180.041 1243.29 186.111C1240.26 187.591 1235.97 190.101 1231.71 191.781C1218.88 196.848 1205.44 200.228 1191.4 201.921C1180.63 203.221 1171.4 203.101 1158.34 203.571C1158.24 203.575 1158.15 203.559 1158.05 203.524C1157.96 203.488 1157.87 203.434 1157.8 203.365C1157.73 203.296 1157.67 203.213 1157.63 203.121C1157.59 203.03 1157.57 202.931 1157.57 202.831V139.331C1157.57 139.213 1157.62 139.099 1157.7 139.012C1157.78 138.925 1157.89 138.871 1158 138.861C1166.78 138.174 1172.42 137.761 1174.92 137.621C1179.06 137.394 1182.54 137.024 1185.36 136.511C1188.66 135.904 1192.1 135.268 1195.66 134.601C1208.24 132.248 1220.63 127.421 1232.83 120.121C1246.8 111.771 1258.65 99.3211 1266.59 84.2011C1270.42 76.9278 1273.86 67.5544 1276.91 56.0811C1277.7 53.1411 1277.79 50.0811 1278.1 47.6511C1278.13 47.4423 1278.23 47.2497 1278.39 47.1096C1278.55 46.9696 1278.75 46.8918 1278.96 46.8911H1351.19C1351.31 46.8911 1351.42 46.9134 1351.52 46.9566C1351.63 46.9998 1351.72 47.0631 1351.8 47.143C1351.88 47.2229 1351.95 47.3177 1351.99 47.422C1352.03 47.5263 1352.05 47.6382 1352.05 47.7511Z" fill="white"/>
<path d="M1781.3 281.001C1782.06 271.648 1783.3 263.768 1785.02 257.361C1786.97 250.081 1790.02 242.698 1794.17 235.211C1800.88 223.118 1808.65 213.111 1817.47 205.191C1835.56 188.978 1857.09 178.015 1882.06 172.301C1904.26 167.221 1925.83 165.181 1946.75 166.181C1956.77 166.661 1962.7 166.981 1964.54 167.141C1977.69 168.281 1991.98 171.431 2004.81 175.141C2014.36 177.908 2023.94 182.061 2033.55 187.601C2053.84 199.295 2068.84 215.565 2078.54 236.411C2087.11 254.811 2090.14 277.831 2090.18 298.501C2090.29 347.501 2090.31 397.838 2090.24 449.511C2090.24 455.031 2090.64 460.351 2091.45 465.471C2093.04 475.411 2099.98 478.761 2109.83 478.801C2116.96 478.835 2123.56 478.345 2129.63 477.331C2129.71 477.318 2129.78 477.321 2129.85 477.34C2129.92 477.359 2129.99 477.394 2130.05 477.441C2130.1 477.489 2130.15 477.548 2130.18 477.615C2130.21 477.683 2130.23 477.756 2130.23 477.831L2131.41 536.101C2131.42 536.254 2131.37 536.403 2131.27 536.523C2131.18 536.643 2131.05 536.727 2130.9 536.761C2119.72 539.415 2107.94 540.871 2095.56 541.131C2074.88 541.561 2054.2 539.831 2039.33 524.641C2029.69 514.781 2024.68 502.615 2024.3 488.141C2024.3 487.911 2024.21 487.689 2024.07 487.51C2023.92 487.33 2023.72 487.203 2023.5 487.148C2023.28 487.092 2023.04 487.112 2022.83 487.202C2022.62 487.293 2022.44 487.451 2022.32 487.651C2021.37 489.371 2020.33 490.928 2019.21 492.321C2010.49 503.148 2001.58 512.228 1992.47 519.561C1989.65 521.841 1985.23 524.748 1979.23 528.281C1974.21 531.235 1969.47 533.598 1965.03 535.371C1948.25 542.051 1931.21 545.738 1913.89 546.431C1877.02 547.901 1838.92 542.111 1808.99 518.891C1796.19 508.951 1786.66 497.295 1780.42 483.921C1775.34 473.021 1772.13 461.775 1770.79 450.181C1768.49 430.121 1770.64 410.061 1777.78 392.111C1793.11 353.621 1833.57 332.441 1871.89 325.761C1883.95 323.661 1894.72 322.011 1904.18 320.811C1909.95 320.085 1919.69 319.215 1933.41 318.201C1950.03 316.981 1965.09 315.391 1978.59 313.431C1991.48 311.558 2003.74 308.421 2015.36 304.021C2015.68 303.903 2015.94 303.695 2016.14 303.424C2016.33 303.153 2016.44 302.832 2016.44 302.501C2016.79 288.651 2015.61 275.491 2010.6 262.531C2002.4 241.361 1979.32 229.971 1958.32 226.731C1940.99 224.061 1923.86 224.321 1906.4 228.471C1885.84 233.341 1865.83 246.461 1858.22 266.751C1856.66 270.918 1855.79 273.258 1855.6 273.771C1854.24 277.511 1853.95 280.641 1853.41 284.361C1853.38 284.568 1853.28 284.755 1853.11 284.886C1852.95 285.017 1852.75 285.083 1852.54 285.071L1781.55 281.291C1781.52 281.29 1781.49 281.282 1781.45 281.266C1781.42 281.251 1781.39 281.229 1781.37 281.202C1781.35 281.175 1781.33 281.143 1781.32 281.109C1781.31 281.074 1781.3 281.038 1781.3 281.001ZM2016.59 359.591C2016.51 359.451 2016.37 359.343 2016.22 359.285C2016.06 359.227 2015.89 359.223 2015.72 359.271C2013.16 360.045 2009.46 361.268 2004.64 362.941C2000.78 364.281 1995.71 365.635 1989.42 367.001C1979.56 369.135 1968.12 370.855 1955.09 372.161C1931.35 374.541 1912.06 376.391 1891.97 380.571C1887.53 381.498 1881.03 383.691 1872.47 387.151C1870.24 388.061 1868.36 389.561 1865.65 391.151C1863.96 392.138 1862.37 393.315 1860.89 394.681C1843.39 410.781 1839.91 436.451 1849.87 457.891C1854.53 467.885 1862.03 475.211 1872.39 479.871C1899.99 492.271 1934.27 490.851 1961.63 479.741C1965.78 478.055 1969.48 476.195 1972.73 474.161C1995.39 460.001 2009.69 438.241 2015.07 412.231C2016.03 407.578 2016.51 401.375 2016.5 393.621C2016.5 381.361 2016.59 370.098 2016.78 359.831C2016.78 359.782 2016.78 359.735 2016.76 359.699C2016.74 359.663 2016.71 359.639 2016.68 359.631C2016.63 359.618 2016.6 359.605 2016.59 359.591Z" fill="white"/>
<path d="M1553.26 388.101L1552.68 392.331C1552.65 392.516 1552.66 392.707 1552.71 392.891L1554.61 400.891C1555.65 406.591 1557.47 412.101 1558.95 417.181C1559.93 420.568 1561.16 424.248 1562.62 428.221C1564.08 432.188 1566.32 438.791 1569.35 448.031C1570.26 450.811 1570.74 453.991 1571.87 456.651C1571.9 456.738 1571.96 456.811 1572.04 456.861C1572.12 456.912 1572.21 456.937 1572.31 456.934C1572.4 456.93 1572.49 456.899 1572.56 456.843C1572.64 456.787 1572.7 456.71 1572.73 456.621C1580.3 434.335 1589.1 409.578 1599.13 382.351C1600.12 379.651 1600.8 376.991 1601.73 374.551C1604.7 366.758 1608.07 357.608 1611.84 347.101C1616.38 334.421 1619.71 325.248 1621.82 319.581C1628.61 301.335 1632.72 290.138 1634.15 285.991C1638.41 273.571 1642.24 262.865 1645.62 253.871C1654.96 229.001 1665.19 199.911 1673.01 179.321C1673.63 177.688 1674.11 176.045 1674.46 174.391C1674.49 174.205 1674.6 174.037 1674.75 173.917C1674.9 173.797 1675.09 173.731 1675.29 173.731H1753.74C1753.8 173.732 1753.86 173.748 1753.92 173.779C1753.98 173.809 1754.02 173.852 1754.06 173.905C1754.1 173.958 1754.12 174.019 1754.13 174.083C1754.14 174.147 1754.13 174.211 1754.11 174.271C1747.97 190.351 1743.81 201.195 1741.63 206.801C1731.85 231.928 1721.92 257.025 1711.85 282.091C1709.87 287.011 1708.31 291.138 1707.15 294.471C1705.23 300.001 1702.96 304.461 1700.52 310.821C1690.82 336.108 1683.87 353.941 1679.69 364.321C1672.95 381.021 1667.91 394.038 1664.59 403.371C1663.64 406.018 1661.73 410.715 1658.86 417.461C1657.92 419.641 1656.05 424.351 1653.23 431.591C1635.2 477.851 1625.66 502.298 1624.6 504.931C1620.11 516.071 1615.48 526.921 1611.36 537.821C1611.23 538.136 1611.02 538.407 1610.74 538.598C1610.47 538.789 1610.14 538.891 1609.81 538.891H1547.22C1546.95 538.891 1546.69 538.796 1546.48 538.624C1546.28 538.452 1546.14 538.214 1546.1 537.951C1545.89 536.751 1545.74 536.028 1545.64 535.781C1542.94 529.061 1540.64 522.641 1538.29 517.061C1532.3 502.831 1525.93 485.251 1520.73 472.331C1512.23 451.225 1506.02 435.438 1502.11 424.971C1495.4 407.001 1486.75 386.111 1479.09 366.041C1477.19 361.061 1475.3 357.211 1473.76 352.781C1470.06 342.081 1464.61 329.881 1459.98 317.751C1441.34 268.945 1422.64 221.021 1403.9 173.981C1403.89 173.958 1403.88 173.933 1403.88 173.908C1403.89 173.883 1403.89 173.859 1403.91 173.838C1403.92 173.817 1403.94 173.8 1403.96 173.789C1403.99 173.777 1404.01 173.771 1404.04 173.771H1483.41C1483.69 173.771 1483.97 173.862 1484.2 174.032C1484.43 174.201 1484.6 174.439 1484.69 174.711C1486.33 180.058 1489.06 187.845 1492.9 198.071C1501.72 221.591 1510 245.851 1518.78 268.771C1528.99 295.411 1538.48 324.831 1549.37 352.541C1549.99 354.146 1550.3 355.855 1550.27 357.571C1550.13 364.411 1550.49 371.558 1551.33 379.011C1551.68 382.201 1552.45 385.071 1553.26 388.101Z" fill="white"/>
</svg>
