<svg width="5108" height="788" viewBox="0 0 5108 788" fill="none" xmlns="http://www.w3.org/2000/svg">
<g clip-path="url(#clip0_454_1917)">
<path d="M1201.97 639.22L1177.51 565.131H1030.21L1005.17 639.22H920.75L1071.56 220.547H1135.02L1286.38 639.22H1201.97ZM1105.32 344.019L1052.92 496.332H1155.97L1105.32 344.019Z" fill="white"/>
<path d="M1557.7 639.176L1476.77 472.174H1418.54V639.176H1337.61V220.477H1500.03C1541.17 220.477 1574.16 233.017 1599.02 258.098C1622.68 282.025 1634.54 312.208 1634.54 348.648C1634.54 376.495 1626.96 400.395 1611.84 420.401C1598.25 438.044 1580.59 450.772 1558.85 458.613L1651.42 639.149H1557.68L1557.7 639.176ZM1494.82 293.411H1418.54V403.966H1494.82C1534.01 403.966 1553.63 385.545 1553.63 348.702C1553.63 311.859 1534.04 293.438 1494.82 293.438V293.411Z" fill="white"/>
<path d="M1876.72 293.454V639.22H1795.79V293.454H1687.5V220.547H1985.02V293.454H1876.72Z" fill="white"/>
<path d="M2050.83 639.176V220.477H2131.76V639.149H2050.83V639.176Z" fill="white"/>
<path d="M2451.97 609.805C2423.63 631.771 2387.15 642.727 2342.51 642.727C2309.52 642.727 2281.57 638.807 2258.68 630.966C2233.45 621.943 2210.93 607.442 2191.15 587.463L2243.55 534.535C2255.97 547.075 2271.1 556.286 2288.96 562.167C2304.86 567.269 2323.1 569.82 2343.68 569.82C2392.58 569.82 2417.04 552.58 2417.04 518.074C2417.04 502.794 2412.76 491.032 2404.22 482.788C2396.46 475.726 2384.23 470.838 2367.53 468.099L2317.47 461.037C2282.13 455.935 2255.36 444.388 2237.12 426.342C2217.31 406.336 2207.42 378.919 2207.42 344.009C2207.42 305.985 2220.24 275.399 2245.84 252.278C2272.24 228.754 2307.55 216.992 2351.79 216.992C2407.68 216.992 2452.32 233.265 2485.69 265.785L2434.45 316.941C2422.81 305.582 2408.82 297.526 2392.52 292.826C2380.48 289.685 2366.12 288.127 2349.45 288.127C2306.75 288.127 2285.4 305.77 2285.4 341.055C2285.4 353.22 2289.47 363.209 2297.63 371.051C2306.94 379.671 2319.75 385.176 2336.05 387.512L2384.95 394.574C2419.88 399.677 2446.26 410.445 2464.12 426.906C2485.47 447.288 2496.14 476.88 2496.14 515.71C2496.14 554.541 2481.38 586.657 2451.89 609.805H2451.97Z" fill="white"/>
<path d="M2730.86 293.454V639.22H2649.92V293.454H2541.63V220.547H2839.15V293.454H2730.86Z" fill="white"/>
<path d="M3105.82 639.22L3081.36 565.131H2934.06L2909.02 639.22H2824.6L2975.41 220.547H3038.87L3190.24 639.22H3105.82ZM3009.17 344.019L2956.77 496.332H3059.82L3009.17 344.019Z" fill="white"/>
<path d="M3543.18 293.454V639.22H3462.24V293.454H3353.95V220.547H3651.47V293.454H3543.18Z" fill="white"/>
<path d="M3989.57 456.311C3989.57 465.333 3989.36 473.363 3988.99 480.425C3988.22 497.692 3986.65 512.381 3984.34 524.518C3978.89 553.547 3966.87 577.635 3948.23 596.835C3917.95 627.421 3880.7 642.701 3836.45 642.701C3792.21 642.701 3754.35 627.421 3724.1 596.835C3705.46 578.011 3693.44 553.896 3687.99 524.518C3685.65 512.381 3684.29 497.665 3683.92 480.425C3683.52 473.765 3683.34 465.736 3683.34 456.311V403.382C3683.34 393.984 3683.52 385.954 3683.92 379.268C3684.29 362.028 3685.68 347.312 3687.99 335.174C3693.41 305.77 3705.46 281.655 3724.1 262.858C3754.38 232.272 3791.81 216.992 3836.45 216.992C3881.1 216.992 3917.97 232.272 3948.23 262.858C3966.87 282.058 3978.89 306.173 3984.34 335.174C3986.68 347.339 3988.22 362.028 3988.99 379.268C3989.36 386.33 3989.57 394.36 3989.57 403.382V456.311ZM3904.57 347.527C3901.86 333.026 3896.41 321.264 3888.27 312.242C3875.46 297.338 3858.2 289.899 3836.45 289.899C3814.71 289.899 3796.87 297.338 3784.05 312.242C3775.89 321.264 3770.65 333.026 3768.34 347.527C3765.62 362.807 3764.27 390.251 3764.27 429.86C3764.27 469.469 3765.62 496.886 3768.34 512.193C3770.68 526.694 3775.91 538.455 3784.05 547.478C3796.87 562.382 3814.33 569.82 3836.45 569.82C3858.58 569.82 3875.46 562.382 3888.27 547.478C3896.44 538.455 3901.86 526.694 3904.57 512.193C3907.28 496.51 3908.64 469.066 3908.64 429.86C3908.64 390.654 3907.28 363.209 3904.57 347.527Z" fill="white"/>
<path d="M4370.9 495.671C4370.9 539.174 4356.15 574.862 4326.66 602.682C4297.92 629.348 4261.84 642.667 4218.37 642.667C4174.9 642.667 4138.79 629.348 4110.08 602.682C4080.57 574.862 4065.84 539.174 4065.84 495.671V220.477H4146.77V492.744C4146.77 544.115 4170.64 569.787 4218.37 569.787C4266.09 569.787 4290.56 544.115 4290.56 492.744V220.477H4370.9V495.671Z" fill="white"/>
<path d="M4681.25 639.176L4600.32 472.174H4542.09V639.176H4461.16V220.477H4623.58C4664.71 220.477 4697.71 233.017 4722.57 258.098C4746.23 282.025 4758.09 312.208 4758.09 348.648C4758.09 376.495 4750.51 400.395 4735.38 420.401C4721.8 438.044 4704.14 450.772 4682.39 458.613L4774.97 639.149H4681.22L4681.25 639.176ZM4618.37 293.411H4542.09V403.966H4618.37C4657.56 403.966 4677.18 385.545 4677.18 348.702C4677.18 311.859 4657.59 293.438 4618.37 293.438V293.411Z" fill="white"/>
<path d="M5065.49 609.805C5037.15 631.771 5000.67 642.727 4956.03 642.727C4923.03 642.727 4895.09 638.807 4872.2 630.966C4846.97 621.943 4824.45 607.442 4804.66 587.463L4857.07 534.535C4869.49 547.075 4884.61 556.286 4902.48 562.167C4918.38 567.269 4936.62 569.82 4957.2 569.82C5006.09 569.82 5030.55 552.58 5030.55 518.074C5030.55 502.794 5026.27 491.032 5017.74 482.788C5009.97 475.726 4997.74 470.838 4981.05 468.099L4930.98 461.037C4895.65 455.935 4868.87 444.388 4850.63 426.342C4830.83 406.336 4820.94 378.919 4820.94 344.009C4820.94 305.985 4833.75 275.399 4859.36 252.278C4885.76 228.754 4921.07 216.992 4965.31 216.992C5021.19 216.992 5065.84 233.265 5099.2 265.785L5047.97 316.941C5036.32 305.582 5022.34 297.526 5006.04 292.826C4994 289.685 4979.64 288.127 4962.97 288.127C4920.27 288.127 4898.92 305.77 4898.92 341.055C4898.92 353.22 4902.99 363.209 4911.15 371.051C4920.45 379.671 4933.27 385.176 4949.57 387.512L4998.46 394.574C5033.4 399.677 5059.77 410.445 5077.64 426.906C5098.99 447.288 5109.65 476.88 5109.65 515.71C5109.65 554.541 5094.9 586.657 5065.41 609.805H5065.49Z" fill="white"/>
<path d="M608.845 689.868C607.297 692.518 617.612 691.102 619.586 692.139C624.594 692.633 651.843 701.668 638.969 706.276C632.713 708.548 625.494 707.445 619.76 711.559C615.29 705.964 611.704 698.591 604.248 696.747C618.323 710.21 625.478 731.062 632.697 749.198C647.183 746.055 662.094 743.241 676.943 745.133C680.276 705.964 678.128 664.77 673.31 625.847C666.328 634.455 663.232 653.941 659.709 666.745C649.457 654.566 657.798 634.652 661.684 621.058C646.962 626.407 633.898 634.948 620.06 642.206C618.876 634.208 642.065 617.306 632.65 622.161C621.908 627.444 612.557 633.467 621.087 615.709C626.221 606.723 638.195 601.621 647.151 597.935L616.08 586.382C626.932 580.177 638.495 584.045 649.773 586.382C644.229 580.111 636.599 576.474 629.917 571.751C642.381 558.157 663.137 573.594 673.215 583.683C679.897 567.998 696.657 546.85 715.202 555.095C705.787 565.727 694.809 576.737 690.102 590.512C709.721 582.646 737.159 569.479 756.241 584.357C736.322 587.731 716.055 591.187 697.384 599.367C714.981 610.311 746.763 626.736 744.789 651.999C744.252 655.01 743.067 657.101 740.855 654.336C731.441 640.445 719.925 625.798 704.666 618.425C709.973 630.225 718.504 654.945 702.691 661.347C664.764 549.615 693.087 717.616 701.38 745.89C710.858 734.386 707.588 719.936 716.466 707.955C720.873 701.751 713.78 685.819 722.547 679.417C738.707 674.003 746.874 702.903 747.837 715.328C751.06 728.725 757.442 724.577 762.986 740.953C772.859 777.078 773.522 784.023 752.45 784.023H532.438C559.291 754.02 596.966 774.675 625.399 752.671L611.499 719.953C604.706 723.211 596.887 721.615 590.395 726.042C589.621 716.135 591.105 709.189 596.366 700.829C576.383 713.551 603.348 732.74 569.291 736.246C571.739 727.639 575.198 719.212 580.506 712.02C571.091 714.044 569.18 731.819 565.894 738.517C549.371 757.822 557.964 718.653 565.721 712.382C585.34 686.313 649.094 655.504 670.435 691.843C661.02 693.011 651.827 693.686 645.635 702.047C636.804 691.777 621.545 688.7 608.955 689.819L608.892 689.884H608.845V689.868ZM737.112 746.433C740.745 736.049 728.819 736.657 723.937 731.737C727.271 725.532 736.227 717.846 728.882 711.016C722.326 703.33 711.774 722.026 721.9 718.521C720.115 735.621 710.511 736.542 731.804 743.059C732.752 744.343 727.097 747.125 730.13 751.305C739.134 763.056 742.767 738.879 757.379 754.876C767.22 773.078 766.446 732.378 737.096 746.45L737.112 746.433ZM706.877 760.274C707.351 759.781 708.852 759.962 709.326 759.04C707.351 752.523 697.336 753.625 691.792 753.938C683.262 755.781 677.717 756.094 669.313 753.872C660.073 753.987 648.32 761.986 640.28 760.702C635.335 759.896 633.487 755.962 629.254 763.105C632.587 774.856 649.536 765.014 656.566 761.937C672.725 755.107 693.419 774.296 706.893 760.34V760.274H706.877Z" fill="#070B1F"/>
<path d="M262.421 788.004H19.125L56.215 694.046C67.3041 694.408 73.0382 720.297 83.4006 720.428C89.6086 719.688 96.0378 687.957 105.042 700.383C109.449 704.925 113.572 712.677 118.516 716.363L160.803 670.742L262.358 787.938L262.421 788.004ZM159.918 763.465L156.933 687.101C151.515 695.281 83.7008 760.157 99.5604 761.556C147.029 734.006 125.435 726.995 155.969 763.087C157.344 763.58 158.528 763.58 159.903 763.449L159.918 763.465Z" fill="#070B1F"/>
<path d="M668.349 510.564C570.617 702.593 344.839 495.933 197 503.437C349.483 456.648 531.837 632.203 668.349 510.564Z" fill="#070B1F"/>
<path d="M228.191 341.399L331.532 342.205C340.662 343.686 345.669 352.343 346.443 361.263C343.521 360.835 337.503 364.16 335.117 363.666C330.11 361.823 323.254 353.643 316.509 355.98C300.176 362.185 275.059 362.745 259.8 369.756C240.592 379.597 269.278 419.31 271.963 431.489C281.267 435.109 296.227 429.645 304.409 435.488C323.365 449.263 286.638 451.6 278.345 456.34C267.193 457.262 246.262 491.329 239.707 480.451C233.151 468.091 248.948 454.497 251.507 443.009C243.403 434.155 225.395 391.167 208.272 401.141C203.975 403.659 196.646 412.019 192.713 415.772C178.527 428.312 159.43 442.943 163.142 464.042L155.986 470.691C122.419 457.657 191.765 380.848 199.395 358.169C166.901 301.225 198.684 280.324 228.191 341.317V341.432V341.399ZM193.313 327.393C189.79 327.706 192.839 335.754 195.287 336.807C198.51 335.079 195.951 327.212 193.313 327.393ZM201.416 342.386C198.32 339.128 196.709 347.982 200.279 350.006C204.75 352.59 203.265 344.295 201.416 342.386ZM205.587 357.215C204.149 358.202 206.661 366.316 209.883 365.394C212.395 364.654 208.809 355.009 205.587 357.215ZM213.517 370.924C211.795 372.158 214.117 379.959 217.102 379.038C220.025 377.013 216.439 368.9 213.517 370.924ZM221.746 384.502C219.361 385.242 221.51 392.681 224.258 391.941C227.654 390.278 224.795 384.14 221.746 384.502ZM230.34 396.746C227.954 397.553 230.277 405.107 232.962 404.251C235.347 403.445 233.025 395.891 230.34 396.746ZM238.933 409.715C235.063 413.04 242.329 421.334 242.629 415.492C242.756 413.764 241.192 408.974 238.933 409.715ZM248.047 429.942C251.87 433.628 252.755 423.671 248.822 423.293C245.236 422.931 246.499 428.395 248.047 429.942Z" fill="#070B1F"/>
<path d="M598.952 580.778C511.408 743.167 309.846 532.392 185.102 532.392C262.441 517.695 333.651 551.697 402.113 583.74C454.241 599.474 557.755 628.999 598.968 580.794H598.952V580.778Z" fill="#070B1F"/>
<path d="M567.69 434.446C649.025 442.938 648.251 559.509 537.929 532.584C445.978 555.773 507.632 431.615 567.69 434.446ZM561.719 448.04C544.011 453.998 558.433 481.005 572.508 468.02C581.211 459.594 573.645 445.522 561.719 448.04ZM531.311 462.359C519.447 464.63 520.285 483.935 531.784 485.35C550.566 487.687 549.018 458.902 531.311 462.359ZM592.79 467.098C579.49 469.929 582.712 493.727 598.998 489.843C612.236 486.65 608.839 463.708 592.79 467.098ZM582.886 500.491C568.1 501.725 569.412 525.326 584.671 524.223C599.82 523.121 597.434 499.257 582.886 500.491ZM512.529 520.603C514.914 523.121 519.985 523.186 523.144 522.824C530.773 521.903 544.2 511.024 534.707 504.194C524.755 497.002 503.762 511.386 512.529 520.619V520.603Z" fill="#070B1F"/>
<path d="M286.971 300.207C291.836 299.071 310.476 307.366 311.25 311.826C311.74 314.92 306.006 319.94 303.699 322.145C294.727 330.588 294.127 331.888 284.791 322.885C264.287 309.867 238.745 323.626 217.325 304.963C179.382 272.031 207.041 206.71 256.358 214.083C296.765 220.173 312.23 268.427 287.034 300.223H286.971V300.207ZM256.516 227.266C246.453 229.405 246.564 247.328 258.206 248.348C274.16 249.813 273.512 223.596 256.516 227.266ZM230.499 231.611C216.456 233.075 219.078 254.948 232.631 253.088C246.09 251.228 243.72 230.261 230.499 231.611ZM275.329 249.764C264.445 251.673 264.73 269.381 275.819 270.797C292.105 272.887 291.678 246.9 275.329 249.764ZM213.881 262.321C204.798 272.196 218.636 287.518 228.54 277.775C239.045 267.456 223.059 252.347 213.881 262.321ZM248.049 259.737C241.762 261.136 243.562 271.62 250.181 270.731C257.605 269.776 255.599 257.993 248.049 259.737ZM265.014 277.215C252.724 279.865 255.663 301.276 270.211 298.182C282.564 295.533 279.389 274.154 265.014 277.215ZM236.517 282.235C226.897 284.259 226.344 301.293 237.718 303.202C253.467 305.802 254.288 278.45 236.517 282.235ZM286.387 306.477C285.565 305.687 279.705 306.378 278.457 306.757C277.746 306.987 271.68 311.332 272.454 312.106C274.523 311.711 277.477 313.801 279.294 313.291C280.005 313.06 286.781 306.856 286.402 306.526V306.461L286.387 306.477ZM303.384 312.106C291.742 307.366 294.411 306.411 285.834 316.45C288.235 317.01 292.184 321.865 294.459 321.355C296.149 320.351 303.32 314.591 303.368 312.106H303.384Z" fill="#070B1F"/>
<path d="M203.394 593.276C211.624 590.33 220.154 602.493 223.85 605.949C230.943 603.496 235.903 603.118 241.258 609.767C249.788 619.609 269.881 634.355 261.825 647.768C267.843 656.013 278.585 664.44 269.344 676.24C257.655 685.769 248.24 698.375 236.598 707.905C228.842 714.241 222.35 716.89 213.757 709.633L160.57 650.664C151.629 637.317 161.707 629.203 170.474 620.662C181.563 612.17 190.631 598.526 203.394 593.243V593.309V593.276ZM207.327 602.13C200.298 602.805 201.483 614.556 210.376 612.713C216.821 611.429 212.287 601.653 207.327 602.13ZM243.707 623.147C238.399 624.743 247.292 635.935 249.488 638.025C265.237 648.048 253.958 620.744 243.707 623.147ZM210.013 630.043C183.475 634.289 186.697 680.223 217.042 677.507C247.64 674.742 244.117 624.562 210.013 630.043ZM220.028 696.565C221.813 693.619 217.342 690.542 215.794 693.915C214.483 696.68 219.127 698.03 220.028 696.565ZM224.561 700.202C221.513 701.058 223.013 705.485 225.635 704.81C228.084 704.201 228.384 699.1 224.561 700.202Z" fill="#070B1F"/>
<path d="M384.086 629.921C360.944 632.686 338.103 629.065 320.284 650.329C310.506 661.026 305.673 681.072 316.651 691.901C292.562 695.407 274.964 661.471 288.628 642.1C273.906 598.569 233.878 562.23 190.406 552.142C256.009 542.234 320.111 610.435 384.102 629.855V629.921H384.086Z" fill="#070B1F"/>
<path d="M181.703 491.632C190.059 569.165 143.602 651.388 80.2739 690.541C77.5254 690.854 76.9409 689.8 77.6517 687.101C106.512 627.211 137.947 566.762 169.129 508.107C172.225 504.042 175.811 489.838 181.719 491.632H181.703Z" fill="#070B1F"/>
<path d="M170.55 491.5C144.376 551.949 110.556 611.214 80.7478 670.56C77.5885 676.518 72.1072 688.45 72.6917 672.47C76.2143 608.959 115.453 522.013 170.55 491.5Z" fill="#070B1F"/>
<path d="M414.983 653.831C437.999 659.855 566.992 654.572 565.207 673.696C564.307 683.225 549.759 679.966 543.077 680.213C499.731 680.394 454.696 684.212 411.951 681.875C408.854 677.514 410.576 669.154 411.003 664.101C409.929 660.596 411.413 655.115 414.999 653.766V653.831H414.983Z" fill="#070B1F"/>
<path d="M400.593 160.266V222.739C396.85 235.856 374.64 235.757 372.728 221.571C371.749 210.939 382.111 205.706 391.036 207.927C392.569 208.289 393.706 209.771 395.444 209.507C396.771 163.541 397.339 182.27 355.068 189.248C352.035 202.151 356.3 219.25 354.499 232.68C352.809 248.183 328.135 247.87 326.698 233.206C325.466 220.715 340.188 216.008 349.381 221.258C347.786 156.563 345.021 176.082 400.577 160.266H400.593Z" fill="#070B1F"/>
<path d="M327.112 438.317C269.692 431.24 259.077 363.845 312.674 391.346C316.196 374.313 344.756 364.783 345.467 388.4C345.941 405.072 334.315 423.999 327.096 438.333L327.112 438.317ZM292.644 392.136C282.503 394.226 286.262 411.079 293.544 402.587C295.993 399.756 298.441 390.902 292.644 392.136Z" fill="#070B1F"/>
<path d="M453.509 370.86C485.828 362.121 500.33 391.087 468.057 406.639C494.769 407.808 478.736 432.774 464.424 439.653C466.509 430.24 469.258 412.284 453.509 408.976C467.52 393.786 457.616 380.883 442.53 373.559C448.375 356.706 447.838 342.816 430.367 334.39C467.631 314.525 490.773 345.466 453.509 370.86Z" fill="#070B1F"/>
<path d="M294.843 55.9531C309.645 79.2409 310.734 109.589 293.69 131.922C246.222 134.243 275.761 73.711 294.843 55.9531ZM299.298 89.1649L293.311 88.9509C291.21 86.4823 294.701 74.0237 292.569 72.6248C287.909 72.1969 293.2 86.5316 288.367 86.7127C286.74 84.9846 283.549 80.0144 282.901 85.5606C282.317 89.7738 289.709 93.6743 286.898 98.5129C282.885 97.8052 279.363 90.9423 277.752 98.3154C279.884 103.351 288.446 103.582 285.176 111.218L276.267 106.758C272.839 117.653 295.459 128.976 296.249 113.605L290.705 111.613C289.472 110.757 290.705 106.89 291.795 106.297C294.117 104.931 298.935 109.573 298.808 103.73C298.713 99.9118 291.747 101.344 292.237 96.6696C292.774 91.0904 300.83 95.2378 299.424 89.1155H299.314V89.1649H299.298Z" fill="#070B1F"/>
<path d="M588.965 645.526C587.78 645.345 588.302 647.057 588.491 647.731C589.802 653.146 596.01 653.755 599.58 649.953C606.862 642.152 595.22 629.661 585.095 637.034C570.72 647.485 587.306 670.18 603.34 659.976C613.055 648.719 615.392 651.188 629.041 650.315C623.907 689.304 562.49 685.058 567.908 645.954C570.594 622.535 602.613 617.301 609.169 638.021C614.776 655.796 592.883 667.102 584.368 654.742C576.739 643.617 590.513 631.932 597.606 639.733C604.935 647.781 590.924 657.376 589.012 645.576L588.949 645.51L588.965 645.526Z" fill="#070B1F"/>
<path d="M505.578 85.3652C505.847 85.6779 506.068 85.1183 506.163 84.9044C506.953 83.2092 505.468 81.6457 503.746 81.8103C500.223 82.1888 500.634 88.0643 504.804 88.4428C510.712 88.9859 511.155 79.3416 504.868 78.3542C500.002 79.0619 499.907 77.9098 496.195 75.0297C505.657 66.0767 520.696 81.1026 511.123 90.0227C505.531 95.4867 496.148 89.5948 498.77 82.7319C501.029 76.8565 509.054 78.8808 508.69 84.0156C508.343 88.6403 502.34 88.5415 502.135 84.9044C501.914 81.152 507.553 81.8432 505.578 85.3323V85.3652Z" fill="#070B1F"/>
<path d="M524.333 121.426C541.33 117.822 549.576 140.978 533.463 148.401C539.861 170.092 511.459 177.679 506.894 155.905C490.624 160.349 482.899 136.748 499.233 131.614C488.854 110.465 518.962 98.3525 524.412 121.426H524.333ZM511.38 142.574C517.414 148.483 527.129 139.513 520.953 132.453C514.997 125.623 504.619 136.057 511.38 142.574Z" fill="#070B1F"/>
<path d="M624.036 529.679C645.741 492.106 639.185 447.341 612.758 414.508C663.275 429.814 678.834 508.218 624.036 529.679Z" fill="#070B1F"/>
<path d="M366.859 668.714C351.836 657.835 333.876 679.23 317.953 680.267C333.576 644.916 401.737 617.793 386.415 681.682C382.892 698.469 361.788 684.579 352.01 681.682C327.147 678.49 359.166 666.673 366.859 668.763V668.697V668.714Z" fill="#070B1F"/>
<path d="M224.751 418.57C212.288 437.941 203.047 476.798 226.726 490.82C170.127 502.373 183.191 427.49 224.751 418.57Z" fill="#070B1F"/>
<path d="M263.75 483.987C272.28 472.977 291.899 452.931 306.385 453.31C319.448 453.623 330.411 474.639 316.874 483.872C303.162 493.22 278.536 488.908 263.734 483.987H263.75Z" fill="#070B1F"/>
<path d="M630.792 395.675C609.483 368.405 604.065 335.44 611.742 301.422C582.234 328.1 580.876 393.717 630.792 395.675Z" fill="#070B1F"/>
<path d="M324.407 84.803C319.195 74.5004 320.648 66.1234 327.219 60.1328C313.097 60.1328 305.546 74.3523 324.407 84.803Z" fill="#070B1F"/>
<path d="M122.938 519.422C121.5 508.592 121.8 482.704 131.578 476.187C137.597 472.122 149.886 475.874 150.597 483.807C151.545 494.636 130.978 513.267 122.985 519.405H122.922H122.938V519.422Z" fill="#070B1F"/>
<path d="M332.483 364.029L255.143 385.111C254.069 383.58 257.829 374.282 259.251 373.064C260.198 372.208 265.222 370.859 266.88 370.365C282.929 365.51 300.685 362.992 316.971 358.614C323.463 357.083 326.812 362.482 332.483 364.094V364.029Z" fill="#070B1F"/>
<path d="M421.051 210.677C395.587 162.225 432.44 136.518 434.952 170.767C432.93 186.451 419.156 194.68 421.051 210.677Z" fill="#070B1F"/>
<path d="M616.758 434.919C603.347 433.437 591.957 425.324 579.968 419.662C573.175 412.651 580.142 397.214 589.92 398.81C600.124 400.473 613.125 425.373 616.758 434.902V434.919Z" fill="#070B1F"/>
<path d="M222.063 404.93L165.228 461.496C164.391 445.811 174.595 435.295 185.747 426.391C196.773 418.277 206.567 396.57 222.127 404.93H222.063Z" fill="#070B1F"/>
<path d="M153.322 412.432C149.799 411.444 158.503 397.735 158.929 394.048C162.389 387.778 173.715 326.538 180.397 339.869C188.09 383.581 173.241 380.141 153.322 412.432Z" fill="#070B1F"/>
<path d="M479.911 251.885C426.772 192.916 428.921 251.885 466.137 147.477C532.561 166.913 493.86 209.457 479.911 251.885Z" fill="#070B1F"/>
<path d="M563.74 190.09C520.679 288.408 561.718 251.757 484.062 255.081C492.292 231.284 503.508 208.111 512.085 184.807C528.608 178.108 548.401 181.482 563.724 190.156V190.09H563.74Z" fill="#070B1F"/>
<path d="M455.919 159.031C422.052 253.416 422.462 201.031 467.782 247.64C453.297 239.345 438.022 233.009 421.625 229.684L450.074 158.109L455.919 159.031Z" fill="#070B1F"/>
<path d="M540.172 278.387C529.92 271.064 507.489 260.679 495.5 257.107C558.18 257.107 523.175 294.187 563.835 204.475C565.557 203.439 568.78 205.463 568.479 207.553L540.22 278.321L540.156 278.387H540.172Z" fill="#070B1F"/>
<path d="M397.109 644.978C412.495 643.069 401.469 676.214 404.565 686.056C402.053 694.055 392.702 692.327 391.391 684.772C393.713 672.725 386.257 652.861 397.172 645.043L397.109 644.978Z" fill="#070B1F"/>
<path d="M444.558 515.879C455.094 513.723 477.604 512.39 487.129 520.471C493.653 525.227 490.731 531.597 484.918 532.222C479.31 537.176 411.606 522.43 444.495 515.863H444.558V515.879Z" fill="#070B1F"/>
<path d="M136.404 647.867C148.157 651.011 132.645 684.091 124.541 687.646L122.519 684.387C123.056 679.466 118.349 670.99 119.186 666.613C120.797 662.613 132.013 649.76 136.42 647.867H136.404Z" fill="#070B1F"/>
<path d="M671.63 569.894C664.712 569.828 663.701 557.172 664.411 551.872C665.312 545.174 670.667 541.85 673.052 536.929C674 534.954 674.126 528.387 676.575 528.93C695.783 557.024 674.316 548.614 671.63 569.828V569.894Z" fill="#070B1F"/>
<path d="M459.859 77.4352C463.872 71.5598 474.408 77.9618 478.167 81.6155C482.922 86.2236 482.464 92.708 484.96 97.563C485.971 99.5051 491.073 103.389 489.225 105.15C456.116 105.43 475.04 91.9345 459.907 77.4681L459.859 77.4352Z" fill="#070B1F"/>
<path d="M229.027 428.102C237.194 433.089 243.402 448.148 237.557 456.69C233.971 461.972 227.889 462.219 224.082 457.052C218.064 449.119 224.383 435.475 229.027 428.086V428.102Z" fill="#070B1F"/>
<path d="M348.846 316.596C360.773 314.819 366.681 332.083 355.639 337.992C340.016 346.352 332.387 319.049 348.846 316.596Z" fill="#070B1F"/>
<path d="M319.938 150.889L322.102 144.816C330.3 148.141 339.636 138.958 348.434 135.172C386.235 117.612 365.937 182.11 319.922 150.889H319.938Z" fill="#070B1F"/>
<path d="M263.484 141.154C250.958 154.188 244.639 154.682 250.721 134.456C255.081 111.464 264.622 127.51 263.484 141.154Z" fill="#070B1F"/>
<path d="M308.471 32.3769C320.16 29.9576 325.72 46.7939 315.137 51.9123C301.22 58.6435 294.68 35.2899 308.471 32.3769Z" fill="#070B1F"/>
<path d="M410.168 232.479C418.872 230.685 423.026 243.226 415.128 247.044C404.75 252.064 399.884 234.652 410.168 232.479Z" fill="#070B1F"/>
<path d="M568.136 229.19C576.84 227.396 580.995 239.937 573.097 243.755C562.718 248.775 557.853 231.363 568.136 229.19Z" fill="#070B1F"/>
<path d="M188.468 565.817C199.92 563.448 205.37 579.938 194.991 584.958C181.343 591.557 174.946 568.665 188.468 565.817Z" fill="#070B1F"/>
<path d="M250.371 709.94C268.237 706.237 276.751 731.977 260.56 739.827C239.266 750.13 229.283 714.4 250.371 709.94Z" fill="#070B1F"/>
<path d="M545.37 688.986C557.106 686.566 562.698 703.452 552.052 708.603C538.072 715.367 531.516 691.899 545.37 688.986Z" fill="#070B1F"/>
<path d="M539.886 411.26C551.813 408.742 554.198 425.891 544.246 427.981C532.32 430.499 530.835 413.169 539.886 411.26Z" fill="#070B1F"/>
<path d="M476.8 444.948C488.9 442.677 490.274 459.892 480.433 461.669C469.107 463.694 466.958 446.792 476.8 444.948Z" fill="#070B1F"/>
<path d="M312.022 237.951C323.048 235.795 323.775 254.063 311.896 252.088C305.04 250.985 304.614 239.415 312.022 237.951Z" fill="#070B1F"/>
<path d="M364.8 294.693C375.352 292.488 376.489 308.468 366.585 308.83C358.955 309.077 356.807 296.355 364.8 294.693Z" fill="#070B1F"/>
<path d="M277.727 211.5L281.012 157.272C286.983 142.937 309.462 150.508 305.702 165.698C297.883 181.563 287.157 196.573 277.727 211.5Z" fill="#070B1F"/>
<path d="M285.625 210.151C283.84 208.241 313.237 170.866 311.389 163.789C346.52 173.499 293.444 201.609 285.625 210.151Z" fill="#070B1F"/>
<path d="M272.411 205.406C270.5 193.852 243.314 139.805 277.008 152.593C274.323 155.357 272.901 200.863 272.411 205.406Z" fill="#070B1F"/>
<path d="M254.38 165.394L267.081 209.55C258.788 202.226 246.751 187.167 240.606 178.56C234.398 168.29 245.376 160.292 254.317 165.459L254.38 165.394Z" fill="#070B1F"/>
<path d="M287.586 216.308L321.991 188.757C329.92 185.746 338.624 201.364 327.835 206.4L287.586 216.357V216.291V216.308Z" fill="#070B1F"/>
<path d="M257.838 208.134C254.315 203.822 226.956 193.569 238.993 184.945L257.838 208.134Z" fill="#070B1F"/>
<path d="M324.627 213.594C325.338 228.356 302.923 219.124 294.219 221.098L324.627 213.594Z" fill="#070B1F"/>
<path d="M333.652 252.821C341.108 250.484 344.441 263.452 335.263 263.897C328.881 264.209 328.407 254.433 333.652 252.821Z" fill="#070B1F"/>
<path d="M316.277 262.703C323.733 260.366 327.066 273.335 317.888 273.779C311.506 274.092 311.032 264.316 316.277 262.703Z" fill="#070B1F"/>
<path d="M316.277 321.946C323.733 319.609 327.066 332.577 317.888 333.022C311.506 333.334 311.032 323.558 316.277 321.946Z" fill="#070B1F"/>
<path d="M530.459 398.377C529.559 398.41 497.429 398.969 496.149 399.019C496.702 378.397 491.142 340.923 497.129 321.091C497.729 319.116 499.719 318.129 501.236 319.593C502.136 320.466 503.558 326.687 503.937 328.332C505.469 334.817 506.496 341.334 506.701 348.016L511.361 344.132C511.061 337.17 510.887 330.62 511.693 323.774C512.119 320.367 512.909 314.524 513.92 311.332C514.473 309.604 515.705 308.682 517.427 309.357C518.864 309.933 519.844 314.705 520.239 316.318C521.581 321.47 522.766 327.526 523.24 332.825C523.351 334.372 523.129 336.446 523.414 337.894C523.461 338.289 523.287 338.306 523.809 338.289C525.42 338.141 527.71 336.808 529.543 336.792C528.927 335.475 528.816 333.369 528.943 331.904C529.053 330.818 532.276 322.901 532.955 321.733C534.013 319.89 535.972 319.692 537.251 321.42C538.041 322.441 541.295 329.04 541.722 330.406C542.306 332.068 542.385 334.652 541.753 336.314L547.882 337.335C547.677 333.023 547.724 328.629 548.151 324.317C548.562 320.219 549.351 314.837 550.378 310.92C550.631 309.982 550.852 308.633 551.721 308.122C555.07 306.131 555.939 311.134 556.586 313.471C557.613 317.191 558.608 321.618 559.224 325.419C560.077 331.048 560.077 336.561 560.362 342.272L565.274 345.794C565.069 339.82 565.432 333.895 566.301 328.053C566.554 326.242 567.833 318.227 568.607 317.223C569.429 316.137 571.309 316.006 572.24 316.96C573.172 317.948 574.563 323.938 574.942 325.666C579.317 344.264 577.848 375.188 579.302 394.279C579.491 394.986 578.054 396.714 577.596 396.747L545.071 397.982C544.628 392.83 544.786 376.422 543.854 371.353C543.286 368.292 540.442 359.75 538.294 357.808C537.062 356.673 535.688 356.788 534.519 357.956C532.702 359.833 529.559 370.629 529.653 373.361L530.522 398.377L530.475 398.508L530.443 398.41V398.377H530.459ZM523.603 343.869L524.014 355.735L529.179 342.371L523.603 343.819V343.852V343.869ZM548.056 342.947L542.385 341.91L548.467 354.846L548.056 342.98V342.947ZM511.63 350.633C510.524 351.242 509.181 352.377 508.312 353.315C508.012 353.644 506.843 354.928 506.843 355.241L507.554 375.698L512.483 375.517L511.614 350.616V350.649H511.63V350.633ZM566.427 378.446L565.543 353.019C565.053 352.328 564.548 351.785 563.947 351.209C563.047 350.336 561.594 349.3 560.456 348.789L561.499 378.627L566.427 378.446Z" fill="#070B1F"/>
<path d="M534.339 371.535C534.402 370.663 536.076 363.372 536.455 363.241C536.993 363.01 537.087 364.672 537.403 364.952C537.909 366.236 539.315 370.202 539.362 371.354L540.294 398.082L535.302 398.263C535.476 393.375 534.07 376.341 534.37 371.535H534.339Z" fill="#070B1F"/>
<path d="M570.09 300.496C576.361 298.735 577.625 307.984 572.349 309.004C567.184 310.008 565.825 301.664 570.09 300.496Z" fill="#070B1F"/>
<path d="M515.186 287.156C520.778 285.987 522.057 294.578 517.192 295.665C511.426 296.948 510.32 288.176 515.186 287.156Z" fill="#070B1F"/>
<path d="M502.007 311.299C499.97 313.488 496.51 312.748 495.404 309.966C493.414 305.062 499.417 301.573 502.292 305.473C503.603 307.267 503.54 309.687 502.039 311.299H502.007Z" fill="#070B1F"/>
<path d="M555.528 286.804C561.483 285.421 562.921 294.736 557.66 295.905C551.579 297.221 550.394 288.022 555.528 286.804Z" fill="#070B1F"/>
<path d="M532.76 291.542C544.687 287.855 549.994 308.51 535.319 309.316C525.115 309.81 524.341 294.192 532.76 291.542Z" fill="#070B1F"/>
<path d="M212.022 636.195C233.963 632.871 239.697 664.782 219.588 670.625C196.51 677.274 189.054 639.701 212.022 636.195Z" fill="#070B1F"/>
<path d="M596.679 253.663L593.599 268.623L606.457 276.26C607.942 277.132 607.468 279.485 605.73 279.666L590.976 281.279L587.896 296.239C587.564 297.984 585.226 298.247 584.516 296.585L578.466 282.596L563.712 284.209C561.974 284.39 561.042 282.201 562.322 281.032L573.363 270.796L567.313 256.806C566.602 255.194 568.324 253.581 569.857 254.453L582.715 262.089L593.756 251.853C595.02 250.668 597.058 251.853 596.679 253.597L596.726 253.729L596.679 253.663Z" fill="#070B1F"/>
<path d="M525.133 414.27L520.363 429.28L532.763 438.562C534.137 439.599 533.426 441.82 531.752 441.82H516.429L511.659 456.83C511.122 458.492 508.863 458.492 508.326 456.83L503.619 441.771H488.296C486.574 441.771 485.911 439.5 487.285 438.447L499.685 429.164L494.978 414.106C494.441 412.443 496.289 411.028 497.663 412.081L510.064 421.363L522.464 412.081C523.838 411.028 525.686 412.443 525.149 414.106V414.287H525.133V414.27Z" fill="#070B1F"/>
<path d="M486.967 469.324L486.367 479.034L495.197 482.605C495.734 482.852 495.671 483.659 495.134 483.774L485.956 486.226L485.356 495.936C485.356 496.545 484.582 496.743 484.282 496.249L479.211 488.004L470.033 490.456C469.496 490.571 469.086 489.896 469.433 489.468L475.452 481.964L470.381 473.718C470.081 473.224 470.555 472.616 471.092 472.797L479.922 476.368L485.94 468.863C486.304 468.435 487.015 468.682 487.015 469.291H486.951V469.324H486.967Z" fill="#070B1F"/>
<path d="M382.209 275.1L371.672 270.443L364.153 279.445C362.953 280.893 360.82 279.889 360.931 277.997L361.895 266.246L351.358 261.588C349.731 260.93 349.968 258.379 351.674 257.935L362.874 255.269L363.837 243.518C363.948 241.642 366.317 241.082 367.281 242.744L373.205 252.833L384.404 250.167C386.11 249.722 387.422 251.829 386.221 253.277L378.702 262.28L384.626 272.368C385.589 273.915 383.978 275.808 382.382 275.133H382.209V275.1Z" fill="#070B1F"/>
<path d="M410.853 257.481C401.343 264.229 410.268 281.378 421.815 275.75C434.927 269.347 424.043 248.199 410.853 257.481ZM431.151 248.775C422.905 254.091 427.344 268.985 437.644 268.13C455.257 266.665 446.805 238.637 431.151 248.775ZM477.008 258.88C476.392 258.601 475.018 258.847 474.37 259.16C470.816 260.822 464.971 272.145 461.622 275.289C460.564 277.922 464.134 283.353 465.082 286.167L485.649 288.768C487.339 288.422 488.476 286.414 488.129 284.67C486.075 281.032 479.362 259.835 477.04 258.814L476.992 258.88H477.008Z" fill="#070B1F"/>
<path d="M466.393 301.001L426.349 318.183C424.454 317.755 423.648 317.229 422.685 315.484C419.62 309.889 412.875 292.888 411.137 286.667C410.3 283.606 411.216 282.602 413.76 281.203C422.4 276.529 441.293 268.349 450.581 265.42C452.793 264.712 454.151 264.794 455.399 266.983C460.233 275.673 462.902 288.395 467.594 297.529L466.441 301.001H466.393Z" fill="#070B1F"/>
<path d="M381.119 125.083L375.622 142.265C374.99 144.24 377.154 145.919 378.813 144.651L392.935 134.02L406.899 144.586C408.51 145.836 410.737 144.158 410.121 142.117L404.861 124.935L418.983 114.303C420.642 113.036 419.804 110.37 417.798 110.37L400.422 110.403L395.178 93.2045C394.593 91.2131 391.86 91.2131 391.181 93.2045L385.684 110.386L368.308 110.419C366.318 110.419 365.417 113.118 367.076 114.336L367.139 114.484L381.103 125.05H381.119V125.083Z" fill="#070B1F"/>
<path d="M484.571 40.3259L477.573 31.4387C476.768 30.4183 475.172 31.0602 475.267 32.4262L475.978 43.9301L465.805 48.1762C464.62 48.6535 464.731 50.4803 465.979 50.8095L476.61 53.6731L477.321 65.1771C477.415 66.5266 479.074 66.971 479.753 65.8354L485.598 56.0924L496.245 58.9561C497.477 59.3017 498.393 57.7711 497.587 56.7178L490.59 47.8306L496.434 38.0876C497.114 36.9685 496.024 35.5531 494.839 36.0798H494.744L484.571 40.293V40.3259Z" fill="#070B1F"/>
<path d="M451.036 110.561L443.486 100.078C442.617 98.8764 440.753 99.5182 440.8 101.065L440.99 114.182L429.111 118.461C427.737 118.938 427.752 121.012 429.174 121.473L441.211 125.324L441.4 138.441C441.432 139.971 443.312 140.58 444.149 139.33L451.384 128.566L463.421 132.417C464.811 132.878 465.948 131.199 465.079 129.949L457.529 119.465L464.763 108.702C465.601 107.467 464.416 105.805 463.042 106.315L462.931 106.282L451.036 110.561Z" fill="#070B1F"/>
<path d="M339.952 113.901L350.03 108.602C351.183 107.993 350.931 106.166 349.619 105.968L338.483 104.076L336.73 92.473C336.54 91.1235 334.787 90.8108 334.171 92.0616L329.021 102.529L317.885 100.636C316.573 100.422 315.768 102.068 316.7 103.022L324.677 111.367L319.527 121.834C318.911 123.035 320.159 124.352 321.36 123.759L331.438 118.46L339.415 126.804C340.331 127.758 341.927 126.936 341.705 125.602L341.753 125.504L339.999 113.901H339.952Z" fill="#070B1F"/>
<path d="M339.952 296.589L350.03 291.289C351.183 290.68 350.931 288.853 349.619 288.656L338.483 286.763L336.73 275.161C336.54 273.811 334.787 273.498 334.171 274.749L329.021 285.216L317.885 283.324C316.573 283.11 315.768 284.755 316.7 285.71L324.677 294.054L319.527 304.521C318.911 305.723 320.159 307.039 321.36 306.447L331.438 301.147L339.415 309.491C340.331 310.446 341.927 309.623 341.705 308.29L341.753 308.191L339.999 296.589H339.952Z" fill="#070B1F"/>
<path d="M455.662 46.034C456.278 33.0323 464.034 13.2501 464.034 13.2501C464.034 13.2501 429.44 -5.18259 397.705 1.43343C397.689 2.09174 397.626 3.7046 397.594 5.97577V6.4695C397.562 7.93425 397.594 9.54711 397.641 11.2916V11.6043C397.752 18.6318 398.352 28.3748 400.406 34.9085C400.817 36.077 401.211 37.0645 401.591 37.8051L401.985 38.5786C405.54 44.5528 402.633 59.6445 398.084 71.0333C397.91 71.4777 397.736 71.8727 397.562 72.2841C401.938 81.5334 408.336 90.0091 416.613 93.2677C437.875 92.3297 457.842 59.085 456.088 51.8929C455.772 50.5928 455.678 48.5191 455.709 46.0175H455.677H455.646L455.662 46.034ZM430.514 52.6994C430.514 52.6994 428.429 55.1516 423.453 55.2997C419.03 52.8804 418.145 49.7205 418.145 49.7205C419.962 51.6461 424.085 52.2056 424.085 52.2056C424.085 52.2056 428.05 53.6045 430.482 52.6994H430.514ZM400.801 33.8388C400.801 33.8388 406.298 26.0378 412.79 27.3709C419.377 28.7204 421.526 40.4383 421.62 41.1625C412.222 31.1232 400.769 33.8223 400.769 33.8223L400.801 33.8552V33.8388ZM426.849 79.4597C426.47 79.8053 422.41 83.5412 418.035 82.5537C415.855 82.06 414.18 80.5624 413.09 79.0976C411.937 77.6164 411.353 76.2669 411.226 75.9871C411.037 75.4934 405.84 61.3068 411.432 59.9408C417.024 58.5748 422.679 59.8256 422.679 59.8256C422.679 59.8256 428.334 61.1257 432.899 64.73C437.512 68.3178 427.212 79.1305 426.849 79.4761V79.4597ZM430.198 43.4336C430.198 43.4336 436.959 32.7196 443.419 34.2008C449.801 35.6162 451.95 45.3757 452.044 45.6884C451.586 45.3592 442.408 38.414 430.166 43.4336H430.198Z" fill="#070B1F"/>
<path d="M398.59 40.7787C398.59 40.7787 398.527 40.6635 398.496 40.6306C398.401 40.4496 398.243 40.1698 398.038 39.7419C397.579 38.8202 397.074 37.6188 396.616 36.187C394.42 29.2583 393.788 19.2026 393.646 11.6485V11.4016C393.583 9.44313 393.583 7.63278 393.599 6.15158V5.93763C393.615 3.35376 393.678 1.60924 393.709 1.29654V1.23071C393.709 1.23071 377.439 -0.892345 358.31 2.21817C358.278 2.18526 358.246 2.15234 358.246 2.15234L358.183 2.21817C347.142 4.04498 335.105 7.63278 324.742 14.3969C324.742 14.3969 332.735 33.5044 333.857 46.6377C333.952 49.4355 333.936 51.7725 333.604 53.2043C332.04 60.5116 352.923 93.5588 374.359 94.0196C383.457 90.2014 390.139 80.014 394.341 69.514C399.285 57.0884 400.739 44.2019 398.559 40.8116H398.622L398.59 40.7787ZM367.535 55.1793C367.535 55.1793 371.737 54.8336 373.648 52.941C373.648 52.941 372.653 56.068 368.088 58.2898C363.096 57.9112 361.058 55.3274 361.058 55.3274C363.491 56.4136 367.535 55.1628 367.535 55.1628V55.1957V55.1793ZM338.185 46.8187C338.296 46.4731 342.466 35.6768 349.005 34.4589C355.64 33.1752 360.568 45.2717 360.568 45.2717C348.216 39.7254 338.627 46.5389 338.217 46.8516L338.185 46.8187ZM374.785 79.0266C372.953 79.8988 370.931 80.2938 368.925 80.1457H368.83C362.053 79.6355 358.294 73.9411 356.209 69.9419C355.64 68.2961 355.119 66.6668 354.55 65.021C354.85 65.0539 355.15 65.1362 355.387 65.2514C357.156 66.1237 359.163 66.5845 361.137 66.8314C366.761 67.572 372.463 66.4528 377.471 63.7373C379.192 62.8157 380.93 61.5978 382.273 60.1495C382.51 59.9356 382.747 59.771 383.047 59.6064C383.094 61.1534 383.157 62.7498 383.205 64.2969C382.683 68.8063 381.199 75.949 374.769 79.0101L374.785 79.0266ZM370.726 43.3461C370.726 43.3461 371.184 30.2128 377.818 28.962C384.453 27.7113 392.161 36.5655 392.161 36.5655C392.161 36.5655 380.535 33.4056 370.694 43.379L370.726 43.3461Z" fill="#070B1F"/>
</g>
<defs>
<clipPath id="clip0_454_1917">
<rect width="5108" height="788" fill="white"/>
</clipPath>
</defs>
</svg>
