<svg width="200" height="34" viewBox="0 0 200 34" fill="none" xmlns="http://www.w3.org/2000/svg">
<g clip-path="url(#clip0_24_174)">
<path d="M36.7895 16.9914L25.7649 33.9903L9.20966 34L13.6184 27.2022L22.8105 27.197L29.4262 16.9961L28.6903 15.2935L25.0112 15.2919L21.3351 15.3034L12.1351 15.3032L15.4429 10.2028L20.9639 10.2013L22.8062 10.198L24.643 10.203L33.8402 10.1898L36.0536 15.289L36.7895 16.9914Z" fill="white"/>
<path d="M0 17.0086L11.0246 0.00967209L27.5801 0L23.1711 6.79807L13.9739 6.81104L7.35817 17.0121L8.09128 18.701L15.4492 18.7046L24.6467 18.6916L21.3386 23.7921L12.1414 23.8053L10.3044 23.8003L2.94926 23.8102L0.736146 18.711L0 17.0086Z" fill="white"/>
<path d="M118.805 30.0228V3.97662H124.11V30.0228H118.805Z" fill="white"/>
<path d="M128.312 30.0228V3.97662H136.77C139.893 3.97662 142.597 4.50932 144.882 5.57426C147.168 6.6392 148.936 8.14417 150.187 10.0889C151.439 12.0337 152.065 14.3374 152.065 16.9997C152.065 19.6507 151.439 21.9542 150.187 23.9107C148.936 25.8555 147.168 27.3602 144.882 28.4252C142.597 29.4903 139.893 30.0228 136.77 30.0228H128.312ZM133.618 25.3518H136.959C139.026 25.3518 140.777 25.0278 142.213 24.3795C143.659 23.7197 144.756 22.7703 145.502 21.5318C146.26 20.2815 146.639 18.7709 146.639 16.9997C146.639 15.217 146.26 13.7063 145.502 12.4678C144.756 11.2291 143.659 10.2856 142.213 9.63735C140.777 8.97754 139.026 8.64764 136.959 8.64764H133.618V25.3518Z" fill="white"/>
<path d="M177.953 3.97662V18.3021C177.953 20.8487 177.499 23.0366 176.592 24.8656C175.698 26.6948 174.404 28.1012 172.718 29.085C171.041 30.0575 169.024 30.5437 166.671 30.5437C164.329 30.5437 162.313 30.0575 160.627 29.085C158.938 28.1012 157.64 26.6948 156.733 24.8656C155.837 23.0366 155.389 20.8487 155.389 18.3021V3.97662H160.694V17.6423C160.694 19.4597 160.919 20.976 161.366 22.1917C161.827 23.407 162.498 24.3274 163.382 24.9526C164.266 25.5659 165.363 25.8727 166.671 25.8727C167.981 25.8727 169.078 25.5659 169.962 24.9526C170.846 24.3274 171.511 23.407 171.96 22.1917C172.418 20.976 172.648 19.4597 172.648 17.6423V3.97662H177.953Z" fill="white"/>
<path d="M83.0061 30.5442C81.0425 30.5442 79.2283 30.2084 77.5632 29.537C75.9096 28.8541 74.4685 27.9047 73.2399 26.6893C72.0226 25.4624 71.0752 24.0268 70.3978 22.3831C69.7318 20.7393 69.3987 18.9449 69.3987 17.0002C69.3987 15.0554 69.7318 13.2611 70.3978 11.6175C71.0752 9.96208 72.0226 8.52667 73.2399 7.31105C74.4685 6.0841 75.9096 5.13471 77.5632 4.46334C79.2283 3.79198 81.0425 3.45618 83.0061 3.45618C84.9698 3.45618 86.7783 3.79788 88.4318 4.4808C90.0854 5.15216 91.5151 6.09566 92.7207 7.31105C93.9381 8.52667 94.8852 9.95618 95.5629 11.6C96.2403 13.2439 96.579 15.0439 96.579 17.0002C96.579 18.9449 96.2403 20.7452 95.5629 22.4003C94.8969 24.0442 93.9551 25.4739 92.7381 26.6893C91.5207 27.9047 90.0854 28.8541 88.4318 29.537C86.7783 30.2084 84.9698 30.5442 83.0061 30.5442ZM83.0061 25.8732C84.1658 25.8732 85.2395 25.6475 86.2271 25.1959C87.2262 24.7446 88.0931 24.1194 88.8281 23.3207C89.5631 22.5105 90.1313 21.5726 90.5334 20.5077C90.9467 19.4312 91.1533 18.262 91.1533 17.0002C91.1533 15.7383 90.9467 14.5692 90.5334 13.4927C90.1313 12.4162 89.5631 11.4783 88.8281 10.6796C88.0931 9.8694 87.2262 9.24425 86.2271 8.80446C85.2395 8.35287 84.1658 8.1272 83.0061 8.1272C81.8348 8.1272 80.7497 8.35287 79.7508 8.80446C78.7632 9.24425 77.8963 9.8694 77.1499 10.6796C76.4149 11.4783 75.8409 12.4162 75.4273 13.4927C75.0254 14.5692 74.8245 15.7383 74.8245 17.0002C74.8245 18.262 75.0254 19.4312 75.4273 20.5077C75.8409 21.5844 76.4149 22.5277 77.1499 23.3382C77.8963 24.1369 78.7632 24.762 79.7508 25.2134C80.7497 25.6534 81.8348 25.8732 83.0061 25.8732Z" fill="white"/>
<path d="M116.766 30.0231H99.8862V3.97705H105.191V25.352H114.492L116.766 30.0231Z" fill="white"/>
<path d="M54.1266 25.6301C53.4033 25.4334 52.6684 25.1323 51.9219 24.7271C51.4929 24.484 51.0541 24.2013 50.6054 23.8789L47.1163 27.2103C48.4943 28.2983 49.9813 29.126 51.5776 29.6934C53.1736 30.2605 54.8445 30.5442 56.5898 30.5442C58.496 30.5442 60.1669 30.2259 61.6022 29.5892C63.0376 28.9409 64.1571 28.0439 64.9608 26.8978C65.7648 25.7402 66.1667 24.3972 66.1667 22.8694C66.1667 21.7118 65.9428 20.7218 65.4949 19.9C65.0586 19.0666 64.4787 18.3547 63.7552 17.7642C63.0432 17.1622 62.2509 16.6413 61.3781 16.2015C60.5171 15.7617 59.6616 15.3563 58.8118 14.9861C57.9851 14.6156 57.2099 14.2452 56.4864 13.8747C55.7746 13.5042 55.1947 13.0816 54.7468 12.6072C54.299 12.1209 54.0752 11.5479 54.0752 10.8881C54.0752 10.3325 54.23 9.85195 54.5402 9.44682C54.8501 9.03013 55.2808 8.70613 55.8319 8.47456C56.3947 8.24298 57.0492 8.1272 57.7957 8.1272C58.6223 8.1272 59.5065 8.27199 60.4481 8.56133C60.816 8.67429 61.1744 8.80328 61.5229 8.94831L65.1676 5.4184C63.8701 4.75859 62.5667 4.26668 61.2577 3.94243C59.9601 3.61842 58.7084 3.45618 57.5028 3.45618C55.7917 3.45618 54.2703 3.75732 52.9383 4.35912C51.6061 4.96115 50.5556 5.81786 49.7863 6.92902C49.0284 8.04042 48.6494 9.36004 48.6494 10.8881C48.6494 12.0573 48.8618 13.0529 49.2866 13.8747C49.7231 14.685 50.2915 15.3738 50.9919 15.9409C51.7039 16.5083 52.4789 17.0002 53.3173 17.4169C54.1669 17.8222 55.0108 18.1984 55.8492 18.5457C56.7105 18.8928 57.5084 19.2576 58.2434 19.6397C58.9898 20.0099 59.5926 20.444 60.052 20.9418C60.5112 21.4396 60.7409 22.0532 60.7409 22.7824C60.7409 23.4075 60.5573 23.9574 60.1898 24.4321C59.8338 24.9066 59.3285 25.2714 58.674 25.5261C58.0195 25.7807 57.2443 25.9078 56.3486 25.9078C55.5907 25.9078 54.8501 25.8154 54.1266 25.6301Z" fill="white"/>
<path d="M187.96 25.6301C187.237 25.4334 186.503 25.1323 185.757 24.7271C185.326 24.484 184.889 24.2013 184.44 23.8789L180.95 27.2103C182.327 28.2983 183.815 29.126 185.413 29.6934C187.008 30.2605 188.678 30.5442 190.423 30.5442C192.33 30.5442 194 30.2259 195.436 29.5892C196.872 28.9409 197.991 28.0439 198.795 26.8978C199.6 25.7402 200 24.3972 200 22.8694C200 21.7118 199.778 20.7218 199.329 19.9C198.894 19.0666 198.313 18.3547 197.588 17.7642C196.877 17.1622 196.084 16.6413 195.212 16.2015C194.351 15.7617 193.495 15.3563 192.646 14.9861C191.82 14.6156 191.043 14.2452 190.32 13.8747C189.609 13.5042 189.029 13.0816 188.58 12.6072C188.133 12.1209 187.909 11.5479 187.909 10.8881C187.909 10.3325 188.063 9.85195 188.374 9.44682C188.685 9.03013 189.116 8.70613 189.665 8.47456C190.229 8.24298 190.884 8.1272 191.63 8.1272C192.456 8.1272 193.34 8.27199 194.283 8.56133C194.65 8.67429 195.008 8.80328 195.357 8.94831L199.001 5.4184C197.705 4.75859 196.4 4.26668 195.092 3.94243C193.794 3.61842 192.543 3.45618 191.338 3.45618C189.626 3.45618 188.105 3.75732 186.772 4.35912C185.441 4.96115 184.391 5.81786 183.621 6.92902C182.863 8.04042 182.484 9.36004 182.484 10.8881C182.484 12.0573 182.697 13.0529 183.12 13.8747C183.558 14.685 184.126 15.3738 184.826 15.9409C185.539 16.5083 186.313 17.0002 187.151 17.4169C188 17.8222 188.844 18.1984 189.684 18.5457C190.545 18.8928 191.343 19.2576 192.077 19.6397C192.823 20.0099 193.427 20.444 193.885 20.9418C194.346 21.4396 194.575 22.0532 194.575 22.7824C194.575 23.4075 194.391 23.9574 194.023 24.4321C193.668 24.9066 193.163 25.2714 192.508 25.5261C191.853 25.7807 191.078 25.9078 190.182 25.9078C189.424 25.9078 188.685 25.8154 187.96 25.6301Z" fill="white"/>
</g>
<defs>
<clipPath id="clip0_24_174">
<rect width="200" height="34" fill="white"/>
</clipPath>
</defs>
</svg>
