<svg width="200" height="48" viewBox="0 0 200 48" fill="none" xmlns="http://www.w3.org/2000/svg">
<path d="M200 22.3094V25.1216H182.62V26.7812C182.62 30.2848 185.525 33.1431 189.028 33.1431H189.765C192.716 33.1431 195.158 31.0685 195.851 28.3486H199.769C198.756 33.0969 194.56 36.6467 189.534 36.6467H189.167C183.404 36.6467 178.701 31.9444 178.701 26.1818V22.6782C178.701 16.8695 183.404 12.2133 189.167 12.2133H189.534C195.158 12.2133 199.769 16.7312 200 22.3094ZM182.62 22.0789V22.2173H196.081V22.0789C196.081 18.5291 193.178 15.7169 189.673 15.7169H188.982C185.479 15.7169 182.62 18.5752 182.62 22.0789ZM170.458 23.3237C173.777 24.2917 177.234 25.1216 177.234 30.1004C177.234 33.558 173.915 36.6467 168.199 36.6467C160.869 36.6467 158.103 32.9125 158.103 29.8239H161.837C161.837 31.8061 163.865 33.5119 168.06 33.5119C170.918 33.5119 173.685 32.5437 173.685 30.1004C173.685 28.5792 173.223 27.3344 169.489 26.4124C168.014 26.0436 164.972 25.2138 163.635 24.7989C160.408 23.8769 158.103 22.125 158.103 18.437C158.103 14.9793 160.961 12.2133 166.724 12.2133C174.008 12.2133 176.175 15.9475 176.175 19.0363L172.487 18.9902C172.487 17.0077 171.056 15.3483 166.816 15.3483C163.957 15.3483 161.652 16.8233 161.652 18.7135C161.652 20.6036 163.358 21.3874 164.787 21.7562C165.616 22.0329 169.304 23.047 170.458 23.3237ZM155.669 36.1396H151.751V12.7665H155.669V36.1396ZM153.871 3.86914C154.886 3.86914 155.669 4.65289 155.669 5.62087V5.89755C155.669 6.8657 154.886 7.64928 153.871 7.64928H153.549C152.534 7.64928 151.751 6.8657 151.751 5.89755V5.62103C151.751 4.65289 152.581 3.86914 153.549 3.86914H153.871ZM146.325 12.7665H150.335L142.913 36.1396H138.902L133.969 20.6959L129.083 36.1396H125.072L117.65 12.7665H121.661L127.101 29.87L131.987 14.3802H135.998L140.885 29.87L146.325 12.7665ZM107.291 12.2133C113.054 12.2133 117.756 16.8695 117.756 22.6782V26.1818C117.756 31.9444 113.054 36.6467 107.291 36.6467H105.724C103.649 36.6467 101.759 35.9552 100.192 34.8027V44.9449H96.4577V21.4335C96.4577 16.3163 100.607 12.2135 105.724 12.2135L107.291 12.2133ZM107.522 33.1431C111.026 33.1431 113.838 30.2848 113.838 26.7812V22.0789C113.838 18.5291 110.933 15.7169 107.43 15.7169H105.493C102.681 15.7169 100.376 18.022 100.376 20.8342V27.9798C100.376 30.838 102.681 33.1431 105.493 33.1431H107.522ZM86.5336 12.6744C91.2821 10.9687 95.3851 14.2417 95.3851 14.2417L93.6332 17.3767C91.0977 15.1637 86.5798 14.749 86.5798 19.3128V36.1396H82.6612V19.1746C82.6612 16.5468 83.6755 13.7347 86.5336 12.6744ZM69.8657 12.2133C75.6284 12.2133 80.3306 16.8695 80.3306 22.6782V26.1818C80.3306 31.9444 75.6284 36.6467 69.8657 36.6467H69.4969C63.7343 36.6467 59.032 31.9444 59.032 26.1818V22.6782C59.032 16.8695 63.7343 12.2133 69.4969 12.2133H69.8657ZM70.0963 33.1431C73.5999 33.1431 76.412 30.2848 76.412 26.7812V22.0789C76.412 18.5291 73.5078 15.7169 70.0041 15.7169H69.3125C65.8089 15.7169 62.9506 18.5752 62.9506 22.0789V26.7812C62.9506 30.2848 65.855 33.1431 69.3587 33.1431H70.0963ZM47.6527 33.1431C50.6033 33.1431 53.0465 31.0685 53.7381 28.3486H57.6567C56.6424 33.0969 52.4473 36.6467 47.4224 36.6467H47.0536C41.2908 36.6467 36.5887 31.9444 36.5887 26.1818V22.6782C36.5887 16.8695 41.2908 12.2133 47.0536 12.2133H47.4224C52.4933 12.2133 56.7347 15.8091 57.7028 20.6036H53.7843C53.0926 17.7915 50.5572 15.7169 47.5606 15.7169H46.8692C43.3654 15.7169 40.5072 18.5752 40.5072 22.0789V26.7812C40.5072 30.2848 43.4115 33.1431 46.9151 33.1431H47.6527Z" fill="white"/>
<path d="M24.8312 5.81646L0 19.4974V13.8039L24.8312 0V5.81646Z" fill="white"/>
<path d="M24.8312 20.4748L0 34.1557V28.462L24.8312 14.6583V20.4748Z" fill="white"/>
<path d="M0 34.2732L24.8312 47.9542V42.2607L0 28.4568V34.2732Z" fill="white"/>
<path d="M0 19.5975L24.8312 33.2782V27.5847L0 13.781V19.5975Z" fill="white"/>
<path d="M5.09863 16.6978L0 13.8936V34.224L5.09863 31.4835V16.6978Z" fill="white"/>
</svg>
