<svg width="200" height="78" viewBox="0 0 200 78" fill="none" xmlns="http://www.w3.org/2000/svg">
<g clip-path="url(#clip0_24_55)">
<path d="M79.2666 75.4074V73.8101H81.2684V68.6632H79.2666V67.0658H85.0745V68.6632H83.063V73.8101H85.0745V75.4074H79.2666Z" fill="white"/>
<path d="M89.255 67.0658H90.9531L96.79 73.2968H96.5488C96.5102 73.0186 96.4764 72.75 96.4475 72.4862C96.4186 72.2224 96.3992 71.9633 96.38 71.7043C96.3655 71.4453 96.351 71.1863 96.3413 70.932C96.3269 70.673 96.3221 70.414 96.3172 70.1502C96.3124 69.8863 96.3124 69.6177 96.3124 69.3395V67.0658H98.0731V75.4074H96.3462L90.4176 69.1189L90.7794 69.1332C90.8035 69.3395 90.8276 69.541 90.8517 69.7424C90.8758 69.9391 90.9 70.1453 90.9193 70.3516C90.9386 70.5579 90.9579 70.7689 90.9723 70.9848C90.9868 71.2006 91.0013 71.4261 91.0061 71.6659C91.0158 71.9058 91.0206 72.1552 91.0206 72.4142V75.417H89.255V67.0658Z" fill="white"/>
<path d="M104.793 75.4074L101.079 67.0658H102.97L104.899 71.5124C104.957 71.6611 105.029 71.8386 105.116 72.0353C105.203 72.2319 105.299 72.4478 105.401 72.678C105.502 72.9083 105.594 73.1385 105.681 73.3736C105.767 73.6086 105.849 73.8341 105.922 74.0595L105.526 74.0691C105.608 73.7909 105.705 73.5079 105.825 73.2105C105.946 72.9179 106.066 72.6253 106.187 72.3423C106.308 72.0545 106.419 71.7858 106.525 71.5316L108.334 67.0658H110.239L106.583 75.4074H104.793Z" fill="white"/>
<path d="M113.241 75.4074V67.0658H120.12V68.6392H114.992V73.8341H120.202V75.4074H113.241ZM114.177 71.9154V70.39H119.541V71.9154H114.177Z" fill="white"/>
<path d="M127.429 75.5277C126.807 75.5277 126.242 75.4654 125.731 75.3406C125.224 75.2159 124.761 75.0432 124.342 74.8178C123.922 74.5923 123.546 74.3189 123.208 74.0023L124.168 72.6065C124.713 73.1053 125.263 73.4651 125.827 73.6762C126.392 73.892 126.956 73.9975 127.525 73.9975C127.829 73.9975 128.119 73.964 128.399 73.8968C128.678 73.8297 128.91 73.7241 129.098 73.5754C129.286 73.4267 129.378 73.2349 129.378 72.995C129.378 72.8511 129.334 72.7312 129.238 72.6257C129.146 72.5249 129.021 72.4338 128.866 72.3618C128.712 72.2899 128.529 72.2323 128.321 72.1892C128.114 72.146 127.902 72.1076 127.68 72.0788C127.463 72.0501 127.246 72.0213 127.029 71.9877C126.503 71.9158 126.03 71.815 125.615 71.6759C125.2 71.5416 124.843 71.3737 124.554 71.177C124.26 70.9804 124.038 70.7357 123.883 70.4431C123.729 70.1553 123.652 69.8244 123.652 69.4598C123.652 69.0617 123.748 68.7019 123.941 68.3805C124.134 68.0592 124.399 67.7857 124.752 67.5651C125.099 67.3444 125.499 67.1718 125.948 67.0566C126.401 66.9415 126.884 66.884 127.405 66.884C127.964 66.884 128.471 66.9415 128.919 67.0519C129.373 67.1622 129.768 67.3205 130.116 67.5171C130.463 67.7138 130.748 67.944 130.974 68.2079L129.981 69.4358C129.764 69.2152 129.518 69.0281 129.233 68.8842C128.948 68.7355 128.649 68.6252 128.336 68.5436C128.017 68.4621 127.699 68.4237 127.371 68.4237C127.019 68.4237 126.71 68.4573 126.435 68.5244C126.165 68.5916 125.948 68.6923 125.789 68.8266C125.63 68.961 125.548 69.124 125.548 69.3159C125.548 69.4886 125.605 69.6373 125.726 69.7572C125.847 69.8771 126.006 69.9731 126.208 70.0402C126.406 70.1122 126.638 70.1745 126.898 70.2273C127.159 70.2801 127.429 70.3232 127.709 70.352C128.172 70.424 128.616 70.5055 129.045 70.6014C129.474 70.6974 129.855 70.8317 130.188 70.9996C130.526 71.1723 130.786 71.3977 130.979 71.6855C131.172 71.9733 131.269 72.3331 131.269 72.7696C131.269 73.3404 131.105 73.8297 130.777 74.2422C130.449 74.6499 130 74.9665 129.421 75.1823C128.842 75.4174 128.177 75.5277 127.429 75.5277Z" fill="white"/>
<path d="M136.918 75.4075V68.6776H133.874V67.0707H141.838V68.6776H138.712V75.4075H136.918Z" fill="white"/>
<path d="M145.074 75.4074V67.0658H146.714L150.332 71.8434L149.363 71.829L152.98 67.0658H154.596V75.4074H152.836V72.4622C152.836 71.7859 152.85 71.1623 152.884 70.5819C152.918 70.0014 152.98 69.421 153.077 68.831L153.27 69.4258L150.241 73.2632H149.449L146.396 69.4162L146.598 68.831C146.695 69.4115 146.758 69.9871 146.791 70.5627C146.825 71.1383 146.84 71.7715 146.84 72.4622V75.4074H145.074Z" fill="white"/>
<path d="M158.706 75.4074V67.0658H165.58V68.6392H160.453V73.8341H165.662V75.4074H158.706ZM159.642 71.9154V70.39H165.011V71.9154H159.642Z" fill="white"/>
<path d="M169.453 67.0658H171.156L176.988 73.2968H176.747C176.708 73.0186 176.675 72.75 176.646 72.4862C176.617 72.2224 176.597 71.9633 176.578 71.7043C176.559 71.4453 176.549 71.1863 176.535 70.932C176.52 70.673 176.515 70.414 176.511 70.1502C176.506 69.8863 176.506 69.6177 176.506 69.3395V67.0658H178.267V75.4074H176.54L170.611 69.1189L170.968 69.1332C170.992 69.3395 171.016 69.541 171.04 69.7424C171.064 69.9391 171.084 70.1453 171.108 70.3516C171.127 70.5579 171.147 70.7689 171.161 70.9848C171.175 71.2006 171.19 71.4261 171.195 71.6659C171.204 71.9058 171.209 72.1552 171.209 72.4142V75.417H169.453V67.0658Z" fill="white"/>
<path d="M184.562 75.4075V68.6776H181.518V67.0707H189.482V68.6776H186.356V75.4075H184.562Z" fill="white"/>
<path d="M196.16 75.5277C195.538 75.5277 194.974 75.4654 194.462 75.3406C193.956 75.2159 193.493 75.0432 193.073 74.8178C192.653 74.5923 192.277 74.3189 191.939 74.0023L192.899 72.6065C193.444 73.1053 193.994 73.4651 194.559 73.6762C195.123 73.892 195.687 73.9975 196.257 73.9975C196.561 73.9975 196.85 73.964 197.13 73.8968C197.41 73.8297 197.641 73.7241 197.829 73.5754C198.017 73.4267 198.109 73.2349 198.109 72.995C198.109 72.8511 198.066 72.7312 197.969 72.6257C197.878 72.5249 197.752 72.4338 197.598 72.3618C197.443 72.2899 197.26 72.2323 197.053 72.1892C196.845 72.146 196.633 72.1076 196.411 72.0788C196.194 72.0501 195.977 72.0213 195.76 71.9877C195.234 71.9158 194.761 71.815 194.346 71.6759C193.932 71.5416 193.575 71.3737 193.285 71.177C192.991 70.9804 192.769 70.7357 192.615 70.4431C192.46 70.1553 192.383 69.8244 192.383 69.4598C192.383 69.0617 192.48 68.7019 192.673 68.3805C192.865 68.0592 193.131 67.7857 193.483 67.5651C193.83 67.3444 194.231 67.1718 194.679 67.0566C195.128 66.9415 195.615 66.884 196.136 66.884C196.696 66.884 197.202 66.9415 197.651 67.0519C198.104 67.1622 198.5 67.3205 198.847 67.5171C199.194 67.7138 199.479 67.944 199.706 68.2079L198.712 69.4358C198.495 69.2152 198.249 69.0281 197.964 68.8842C197.68 68.7355 197.381 68.6252 197.067 68.5436C196.749 68.4621 196.43 68.4237 196.102 68.4237C195.75 68.4237 195.441 68.4573 195.166 68.5244C194.896 68.5916 194.679 68.6923 194.52 68.8266C194.361 68.961 194.279 69.124 194.279 69.3159C194.279 69.4886 194.337 69.6373 194.457 69.7572C194.578 69.8771 194.737 69.9731 194.94 70.0402C195.138 70.1122 195.369 70.1745 195.63 70.2273C195.89 70.2801 196.16 70.3232 196.44 70.352C196.903 70.424 197.347 70.5055 197.776 70.6014C198.206 70.6974 198.587 70.8317 198.919 70.9996C199.257 71.1723 199.518 71.3977 199.711 71.6855C199.904 71.9733 200 72.3331 200 72.7696C200 73.3404 199.836 73.8297 199.508 74.2422C199.18 74.6499 198.731 74.9665 198.152 75.1823C197.574 75.4174 196.913 75.5277 196.16 75.5277Z" fill="white"/>
<path d="M79.2666 59.2091C79.5849 59.2091 82.5323 58.739 82.5323 53.4482V24.3271C82.5323 19.0363 79.5849 18.5662 79.2666 18.5662V18.4607H95.8607C104.655 18.4607 109.768 21.1325 112.769 24.7444C116.247 28.932 116.772 34.3284 116.772 38.0986C116.772 41.9744 115.455 48.2054 111.191 52.9206C107.872 56.5853 102.764 59.3098 95.0744 59.3098H79.2714V59.2091H79.2666ZM94.539 57.9524C98.1714 57.9524 101.49 56.2783 103.545 53.6593C106.705 49.6252 108.128 43.3942 108.128 37.8923C108.128 34.3284 107.496 30.0353 105.808 26.524C103.965 22.701 100.275 19.8182 95.3253 19.8182H91.061V57.9476H94.539V57.9524Z" fill="white"/>
<path d="M119.928 59.2091C120.246 59.2091 123.194 58.739 123.194 53.4482V24.3271C123.194 19.0363 120.241 18.5662 119.928 18.5662V18.4607H129.725L152.48 45.9605V24.3271C152.48 19.0363 149.527 18.5662 149.214 18.5662V18.4607H157.221V18.5662C156.903 18.5662 153.956 19.0363 153.956 24.3271V59.6312L124.67 24.3271V53.4482C124.67 58.739 127.617 59.2091 127.936 59.2091V59.3146H119.928V59.2091Z" fill="white"/>
<path d="M159.96 38.8853C159.96 27.3635 166.911 17.7268 179.974 17.7268C193.037 17.7268 199.989 27.3635 199.989 38.8853C199.989 50.4071 193.037 60.0438 179.974 60.0438C166.911 60.0438 159.96 50.4071 159.96 38.8853ZM179.974 58.6815C187.717 58.6815 191.354 49.8843 191.354 38.8853C191.354 27.8864 187.721 19.0891 179.974 19.0891C172.232 19.0891 168.595 27.8864 168.595 38.8853C168.599 49.8843 172.232 58.6815 179.974 58.6815Z" fill="white"/>
<path d="M33.9651 0L0 19.4988V58.5012L33.9651 78L67.9301 58.5012V19.4988L33.9651 0ZM18.6636 61.9261V22.9765L12.3202 26.6172V58.2854L6.34826 54.8557V23.1395L21.2396 14.5917L24.6356 12.6394V58.4341L30.979 62.0748V8.99871L33.9651 7.28147L36.951 8.99871V62.0796L43.2945 58.4388V12.6442L49.2664 16.0739V61.9309L33.9602 70.7185L18.6636 61.9261ZM61.5866 54.8557L55.6147 58.2854V19.7147L61.5866 23.1443V54.8557Z" fill="white"/>
</g>
<defs>
<clipPath id="clip0_24_55">
<rect width="200" height="78" fill="white"/>
</clipPath>
</defs>
</svg>
