<svg width="200" height="61" viewBox="0 0 200 61" fill="none" xmlns="http://www.w3.org/2000/svg">
<g clip-path="url(#clip0_24_29)">
<path d="M41.7554 36.45L6.65878 36.6459C5.63029 36.6517 4.80075 37.4951 4.80646 38.5292L4.82502 41.889C4.83073 42.9231 5.66952 43.7572 6.69801 43.7515L41.7899 43.5556C42.8184 43.5498 43.6479 42.7064 43.6422 41.6723L43.6236 38.3125C43.6179 37.2784 42.7791 36.4443 41.7507 36.45H41.7554Z" fill="white"/>
<path d="M41.693 25.1172L6.59642 25.3131C5.56793 25.3189 4.73839 26.1623 4.74411 27.1964L4.76266 30.5562C4.76837 31.5903 5.60717 32.4244 6.63565 32.4186L41.7275 32.2227C42.756 32.217 43.5856 31.3736 43.5798 30.3395L43.5613 26.9797C43.5556 25.9456 42.7168 25.1115 41.6883 25.1172H41.693Z" fill="white"/>
<path d="M10.9426 49.3035L21.9737 55.6233C23.4239 56.4539 25.206 56.444 26.6469 55.5972L37.6075 49.1546C38.2406 48.7841 37.9745 47.8039 37.2399 47.808L11.2954 47.9528C10.5608 47.9569 10.3055 48.9353 10.9426 49.3035Z" fill="white"/>
<path d="M37.4441 19.5601L26.4131 13.2403C24.9629 12.4097 23.1808 12.4196 21.7398 13.2664L10.7792 19.7089C10.1462 20.0794 10.4123 21.0597 11.1469 21.0556L37.0914 20.9108C37.826 20.9067 38.0813 19.9283 37.4441 19.5601Z" fill="white"/>
<path d="M17.7111 9.87204L15.3185 5.76303C14.8257 4.91748 13.7434 4.63281 12.9025 5.12837C12.0616 5.62394 11.7785 6.71211 12.2713 7.55766L14.6639 11.6667C15.1567 12.5123 16.239 12.7969 17.0799 12.3014C17.9208 11.8058 18.2039 10.7176 17.7111 9.87204Z" fill="white"/>
<path d="M33.4802 11.5615L35.8272 7.42606C36.3107 6.57506 36.0156 5.49011 35.1693 5.00397C34.3229 4.51782 33.2439 4.81455 32.7604 5.66556L30.4134 9.80103C29.9299 10.652 30.225 11.737 31.0714 12.2231C31.9177 12.7093 32.9967 12.4125 33.4802 11.5615Z" fill="white"/>
<path d="M128.089 47.4722L127.933 19.1741L134.217 19.139L134.374 47.4372L128.089 47.4722ZM133.264 42.9874L133.382 35.2853L143.448 25.5832L150.946 25.5414L141.29 35.5223L138.039 38.2188L133.268 42.9874H133.264ZM144.256 47.382L136.868 38.2635L140.794 33.3376L151.872 47.3395L144.256 47.382Z" fill="white"/>
<path d="M52.379 47.8948L52.2223 19.5252L66.0098 19.4483C69.555 19.4285 72.2271 20.0903 74.0214 21.4337C75.8157 22.7772 76.7166 24.5546 76.7288 26.7658C76.737 28.2527 76.3792 29.5462 75.6648 30.6415C74.9457 31.7369 73.9598 32.5907 72.6928 33.1887C71.4354 33.7867 69.9867 34.0998 68.3469 34.1089L69.1007 32.4415C70.8733 32.4316 72.4438 32.7135 73.8214 33.2873C75.1944 33.861 76.2703 34.7129 77.0396 35.8428C77.8089 36.9728 78.2006 38.3669 78.2096 40.0111C78.2231 42.4415 77.2809 44.3436 75.3831 45.7219C73.4854 47.1003 70.6785 47.7927 66.9722 47.8134L52.379 47.8948ZM58.8402 42.9167L66.4567 42.8742C68.1487 42.8647 69.4316 42.5812 70.3007 42.0235C71.1744 41.461 71.6008 40.577 71.5941 39.3617C71.5874 38.1465 71.1466 37.2911 70.2713 36.7146C69.3913 36.1429 68.11 35.8545 66.418 35.864L58.3181 35.9092L58.2916 31.1245L65.2636 31.0856C66.8466 31.0768 68.0631 30.7936 68.9085 30.236C69.7538 29.6737 70.171 28.8326 70.1647 27.6984C70.1584 26.5642 69.7322 25.7612 68.8807 25.2131C68.0293 24.6602 66.8144 24.3954 65.2267 24.4042L58.7382 24.4405L58.8402 42.9215V42.9119V42.9167Z" fill="white"/>
<path d="M91.9231 47.9981C89.4491 48.0119 87.2804 47.5379 85.4029 46.5762C83.5301 45.6144 82.0772 44.2929 81.0488 42.6068C80.0158 40.9207 79.4933 39.003 79.4813 36.8395C79.4694 34.6759 79.9609 32.7096 80.9612 31.017C81.9613 29.3196 83.3285 27.9871 85.0674 27.0194C86.8063 26.0518 88.78 25.5594 90.9886 25.5471C93.1973 25.5348 95.0293 25.9773 96.7405 26.8732C98.4518 27.7692 99.8097 29.0579 100.814 30.7394C101.819 32.4256 102.328 34.4387 102.341 36.7881C102.342 37.0311 102.329 37.3076 102.303 37.6176C102.276 37.9275 102.249 38.2183 102.232 38.4901L84.6146 38.5884L84.5943 34.8999L98.9031 34.82L96.4919 35.9248C96.4856 34.7906 96.248 33.8054 95.7883 32.9692C95.3287 32.133 94.6947 31.4836 93.8864 31.0116C93.078 30.5443 92.1383 30.3112 91.0577 30.3172C89.977 30.3233 89.0352 30.5668 88.2226 31.0432C87.4052 31.5195 86.769 32.1855 86.3187 33.0411C85.8684 33.8967 85.6418 34.9035 85.6482 36.0663L85.6536 37.0385C85.6601 38.2299 85.9266 39.2721 86.4577 40.1747C86.9888 41.0772 87.7272 41.7593 88.6824 42.2258C89.6377 42.6923 90.7623 42.9243 92.0515 42.9171C93.2079 42.9106 94.2212 42.7287 95.0914 42.3711C95.9662 42.0136 96.7596 41.4802 97.4809 40.7803L100.842 44.4121C99.8534 45.5519 98.6117 46.431 97.1079 47.0494C95.604 47.663 93.8758 47.9777 91.9136 47.9886L91.9137 48.0029L91.9231 47.9981Z" fill="white"/>
<path d="M115.744 47.8651C113.27 47.8789 111.101 47.4049 109.224 46.4432C107.351 45.4814 105.898 44.1599 104.87 42.4738C103.837 40.7877 103.314 38.87 103.302 36.7064C103.29 34.5429 103.782 32.5766 104.782 30.884C105.782 29.1865 107.15 27.854 108.893 26.8864C110.632 25.9188 112.606 25.4264 114.814 25.4141C117.023 25.4017 118.855 25.8443 120.566 26.7402C122.278 27.6361 123.636 28.9248 124.64 30.6063C125.645 32.2925 126.154 34.3056 126.167 36.6551C126.168 36.8981 126.155 37.1746 126.129 37.4845C126.102 37.7944 126.075 38.0853 126.053 38.3571L108.44 38.4554L108.42 34.7668L122.729 34.6869L120.318 35.7917C120.311 34.6575 120.074 33.6723 119.614 32.8361C119.155 31.9999 118.521 31.3506 117.712 30.8785C116.904 30.4112 115.964 30.1782 114.883 30.1842C113.803 30.1902 112.866 30.4338 112.044 30.9102C111.226 31.3865 110.59 32.0525 110.14 32.9081C109.69 33.7637 109.463 34.7705 109.469 35.9333L109.475 36.9055C109.481 38.0969 109.748 39.1391 110.279 40.0416C110.81 40.9442 111.548 41.6263 112.504 42.0928C113.459 42.5593 114.583 42.7913 115.873 42.7841C117.029 42.7776 118.042 42.5956 118.912 42.2381C119.787 41.8806 120.581 41.3471 121.302 40.6473L124.664 44.2791C123.674 45.4189 122.433 46.2979 120.929 46.9164C119.425 47.53 117.697 47.8447 115.735 47.8556V47.8699L115.744 47.8651Z" fill="white"/>
<path d="M161.216 47.6112C158.742 47.625 156.573 47.151 154.696 46.1893C152.818 45.2276 151.37 43.906 150.342 42.2199C149.309 40.5338 148.786 38.6162 148.774 36.4526C148.762 34.289 149.254 32.3228 150.254 30.6301C151.254 28.9327 152.621 27.6002 154.365 26.6325C156.104 25.6649 158.078 25.1725 160.282 25.1602C162.485 25.1479 164.322 25.5904 166.033 26.4864C167.749 27.3823 169.103 28.671 170.107 30.3525C171.112 32.0387 171.621 34.0518 171.634 36.4012C171.635 36.6443 171.622 36.9207 171.596 37.2307C171.569 37.5406 171.542 37.8314 171.52 38.1032L153.903 38.2016L153.882 34.513L168.191 34.4331L165.78 35.5379C165.774 34.4037 165.536 33.4185 165.076 32.5823C164.617 31.7461 163.983 31.0968 163.174 30.6247C162.366 30.1574 161.426 29.9244 160.346 29.9304C159.265 29.9364 158.328 30.1799 157.511 30.6563C156.693 31.1327 156.057 31.7987 155.607 32.6543C155.157 33.5098 154.93 34.5167 154.936 35.6795L154.942 36.6517C154.948 37.8431 155.215 38.8853 155.746 39.7878C156.277 40.6903 157.015 41.3725 157.971 41.839C158.926 42.3054 160.05 42.5374 161.34 42.5302C162.496 42.5238 163.509 42.3418 164.38 41.9843C165.254 41.6267 166.048 41.0933 166.769 40.3935L170.131 44.0253C169.142 45.165 167.9 46.0441 166.396 46.6625C164.892 47.2762 163.164 47.5908 161.202 47.6018V47.6161L161.216 47.6112Z" fill="white"/>
<path d="M189.223 25.3275L183.181 40.1684L177.009 25.3957L170.521 25.4319L178.528 43.0252C180.71 47.5024 179.056 49.2225 178.532 49.6448C178.008 50.0624 177.308 50.2808 176.421 50.2857C175.805 50.2891 175.179 50.1735 174.547 49.9292C173.916 49.6897 173.354 49.3592 172.869 48.9235L170.595 53.4303C171.3 54.0459 172.198 54.527 173.3 54.8735C174.401 55.22 175.516 55.3901 176.644 55.3838C177.962 55.3765 179.164 55.1648 180.247 54.7584C181.331 54.3473 182.322 53.6412 183.222 52.6354C184.117 51.6296 184.91 50.2478 185.597 48.4855L195.266 25.289L189.218 25.3228L189.223 25.3275Z" fill="white"/>
</g>
<defs>
<clipPath id="clip0_24_29">
<rect width="200" height="61" fill="white"/>
</clipPath>
</defs>
</svg>
