<svg width="200" height="35" viewBox="0 0 200 35" fill="none" xmlns="http://www.w3.org/2000/svg">
<g clip-path="url(#clip0_24_14)">
<path d="M52.2782 25.8104C50.5264 25.8104 49.0248 25.3979 47.7735 24.5727C46.54 23.7475 45.673 22.6174 45.1725 21.1824L47.3176 19.9446C48.0506 22.2228 49.7219 23.3618 52.3318 23.3618C53.6188 23.3618 54.6021 23.1018 55.2812 22.5815C55.9604 22.0434 56.3002 21.3349 56.3002 20.4559C56.3002 19.559 55.9604 18.8863 55.2812 18.4379C54.6021 17.9894 53.4669 17.514 51.876 17.0118C51.0895 16.7606 50.4906 16.5633 50.0795 16.4198C49.6683 16.2583 49.1499 16.0252 48.5242 15.7202C47.9165 15.3973 47.4607 15.0744 47.1567 14.7515C46.8528 14.4107 46.5758 13.9712 46.3255 13.4331C46.0931 12.895 45.9769 12.2851 45.9769 11.6034C45.9769 9.97103 46.549 8.67946 47.693 7.72876C48.837 6.76007 50.2314 6.27576 51.876 6.27576C53.3597 6.27576 54.6466 6.65242 55.7373 7.40586C56.8453 8.15924 57.6765 9.15484 58.2308 10.3925L56.1396 11.6034C55.335 9.66606 53.9138 8.69738 51.876 8.69738C50.857 8.69738 50.0348 8.94853 49.4091 9.45082C48.7835 9.95305 48.4706 10.6348 48.4706 11.4958C48.4706 12.3209 48.7656 12.9488 49.3555 13.3793C49.9454 13.8098 50.9643 14.2582 52.4123 14.7246C52.9307 14.8861 53.2971 15.0027 53.5116 15.0744C53.7261 15.1462 54.0568 15.2717 54.5038 15.4511C54.9685 15.6305 55.3084 15.774 55.5228 15.8816C55.7373 15.9893 56.0234 16.1418 56.3806 16.3391C56.7563 16.5364 57.0331 16.7247 57.2117 16.9041C57.3909 17.0835 57.5961 17.3077 57.8285 17.5768C58.0787 17.8279 58.2579 18.0881 58.3649 18.3571C58.4724 18.6262 58.5614 18.9401 58.633 19.2989C58.7226 19.6397 58.7671 20.0074 58.7671 20.4021C58.7671 22.0524 58.1683 23.3708 56.9707 24.3574C55.7731 25.3261 54.2087 25.8104 52.2782 25.8104Z" fill="white"/>
<path d="M73.1464 12.0079H75.4792V30.843H73.1464V23.1475C71.9846 24.9233 70.2951 25.8113 68.0785 25.8113C66.2017 25.8113 64.6018 25.1297 63.2788 23.7663C61.9563 22.3851 61.2945 20.7079 61.2945 18.7347C61.2945 16.7615 61.9563 15.0932 63.2788 13.7299C64.6018 12.3487 66.2017 11.6581 68.0785 11.6581C70.2951 11.6581 71.9846 12.546 73.1464 14.3219V12.0079ZM68.3738 23.5511C69.7321 23.5511 70.8673 23.0936 71.7788 22.1788C72.6903 21.246 73.1464 20.098 73.1464 18.7347C73.1464 17.3714 72.6903 16.2323 71.7788 15.3174C70.8673 14.3847 69.7321 13.9183 68.3738 13.9183C67.0329 13.9183 65.9069 14.3847 64.9949 15.3174C64.0833 16.2323 63.6273 17.3714 63.6273 18.7347C63.6273 20.098 64.0833 21.246 64.9949 22.1788C65.9069 23.0936 67.0329 23.5511 68.3738 23.5511Z" fill="white"/>
<path d="M88.5181 12.0069H90.8509V25.4605H88.5181V23.5232C87.5708 25.048 86.1229 25.8103 84.1745 25.8103C82.6011 25.8103 81.3411 25.317 80.3938 24.3304C79.4464 23.3259 78.9725 21.9716 78.9725 20.2674V12.0069H81.3053V20.1329C81.3053 21.2271 81.6 22.0792 82.1902 22.6891C82.7803 23.2811 83.5936 23.5771 84.6305 23.5771C85.7923 23.5771 86.7309 23.2183 87.4459 22.5007C88.1609 21.7653 88.5181 20.6442 88.5181 19.1373V12.0069Z" fill="white"/>
<path d="M105.756 12.0079H108.089V25.4615H105.756V23.1475C104.595 24.9233 102.905 25.8113 100.688 25.8113C98.8117 25.8113 97.2118 25.1297 95.8888 23.7663C94.5663 22.3851 93.9045 20.7079 93.9045 18.7347C93.9045 16.7615 94.5663 15.0932 95.8888 13.7299C97.2118 12.3487 98.8117 11.6581 100.688 11.6581C102.905 11.6581 104.595 12.546 105.756 14.3219V12.0079ZM100.984 23.5511C102.342 23.5511 103.477 23.0936 104.389 22.1788C105.3 21.246 105.756 20.098 105.756 18.7347C105.756 17.3714 105.3 16.2323 104.389 15.3174C103.477 14.3847 102.342 13.9183 100.984 13.9183C99.6429 13.9183 98.5169 14.3847 97.6049 15.3174C96.6934 16.2323 96.2373 17.3714 96.2373 18.7347C96.2373 20.098 96.6934 21.246 97.6049 22.1788C98.5169 23.0936 99.6429 23.5511 100.984 23.5511Z" fill="white"/>
<path d="M114.211 14.2679C114.979 12.5997 116.374 11.7656 118.394 11.7656V14.2141C117.25 14.1603 116.267 14.4653 115.444 15.129C114.622 15.7927 114.211 16.86 114.211 18.3309V25.4613H111.879V12.0077H114.211V14.2679Z" fill="white"/>
<path d="M121.828 19.811C122.061 21.0128 122.606 21.9456 123.464 22.6093C124.34 23.273 125.413 23.6049 126.682 23.6049C128.452 23.6049 129.739 22.9501 130.543 21.6406L132.527 22.7708C131.222 24.7978 129.256 25.8113 126.628 25.8113C124.501 25.8113 122.767 25.1476 121.426 23.8202C120.104 22.4748 119.442 20.7796 119.442 18.7347C119.442 16.7077 120.094 15.0215 121.4 13.6761C122.705 12.3308 124.394 11.6581 126.467 11.6581C128.434 11.6581 130.034 12.3577 131.267 13.7569C132.519 15.1381 133.144 16.8063 133.144 18.7616C133.144 19.1024 133.117 19.4522 133.064 19.811H121.828ZM126.467 13.8644C125.216 13.8644 124.179 14.2232 123.357 14.9408C122.535 15.6403 122.025 16.5821 121.828 17.766H130.785C130.588 16.4924 130.087 15.5237 129.283 14.86C128.478 14.1963 127.54 13.8644 126.467 13.8644Z" fill="white"/>
<path d="M138.818 23.093H146.916V25.4608H136.324V6.62579H138.818V23.093Z" fill="white"/>
<path d="M160.223 23.7663C158.847 25.1297 157.175 25.8113 155.209 25.8113C153.243 25.8113 151.571 25.1297 150.195 23.7663C148.836 22.403 148.157 20.7258 148.157 18.7347C148.157 16.7435 148.836 15.0663 150.195 13.703C151.571 12.3397 153.243 11.6581 155.209 11.6581C157.175 11.6581 158.847 12.3397 160.223 13.703C161.6 15.0663 162.288 16.7435 162.288 18.7347C162.288 20.7258 161.6 22.403 160.223 23.7663ZM155.209 23.5242C156.55 23.5242 157.676 23.0668 158.587 22.1519C159.499 21.2371 159.955 20.098 159.955 18.7347C159.955 17.3714 159.499 16.2323 158.587 15.3174C157.676 14.4026 156.55 13.9452 155.209 13.9452C153.886 13.9452 152.769 14.4026 151.857 15.3174C150.946 16.2323 150.489 17.3714 150.489 18.7347C150.489 20.098 150.946 21.2371 151.857 22.1519C152.769 23.0668 153.886 23.5242 155.209 23.5242Z" fill="white"/>
<path d="M176.416 12.0079H178.722V24.8964C178.722 26.8876 178.052 28.4303 176.711 29.5245C175.371 30.6367 173.762 31.1927 171.885 31.1927C170.383 31.1927 169.087 30.9057 167.997 30.3317C166.907 29.7756 166.084 28.9684 165.53 27.9101L167.568 26.7531C168.301 28.2598 169.757 29.0133 171.939 29.0133C173.333 29.0133 174.423 28.6455 175.21 27.9101C176.014 27.1746 176.416 26.17 176.416 24.8964V22.986C175.237 24.7798 173.556 25.6767 171.375 25.6767C169.463 25.6767 167.845 24.9951 166.522 23.6318C165.199 22.2685 164.538 20.6092 164.538 18.654C164.538 16.6987 165.199 15.0484 166.522 13.703C167.845 12.3397 169.463 11.6581 171.375 11.6581C173.574 11.6581 175.255 12.546 176.416 14.3219V12.0079ZM168.238 22.0712C169.15 22.986 170.285 23.4434 171.643 23.4434C173.002 23.4434 174.137 22.986 175.049 22.0712C175.96 21.1563 176.416 20.0172 176.416 18.654C176.416 17.3086 175.96 16.1785 175.049 15.2637C174.137 14.3488 173.002 13.8914 171.643 13.8914C170.285 13.8914 169.15 14.3488 168.238 15.2637C167.326 16.1785 166.871 17.3086 166.871 18.654C166.871 20.0172 167.326 21.1563 168.238 22.0712Z" fill="white"/>
<path d="M183.684 9.55891C183.237 9.55891 182.862 9.40649 182.558 9.10151C182.254 8.79654 182.102 8.42881 182.102 7.99833C182.102 7.56778 182.254 7.20005 182.558 6.89514C182.862 6.57224 183.237 6.41077 183.684 6.41077C184.113 6.41077 184.479 6.57224 184.783 6.89514C185.087 7.20005 185.239 7.56778 185.239 7.99833C185.239 8.42881 185.087 8.79654 184.783 9.10151C184.479 9.40649 184.113 9.55891 183.684 9.55891ZM182.504 25.4611V12.0075H184.837V25.4611H182.504Z" fill="white"/>
<path d="M200 25.4608H197.104L190.991 19.0838V25.4608H188.658V6.62579H190.991V17.9537L196.782 12.0072H199.786L193.377 18.5188L200 25.4608Z" fill="white"/>
<path d="M34.8286 21.6983V35H25.4958C19.3867 35 0 35 0 35C0 35 4.63028e-05 13.1852 4.63028e-05 7.62547V0H13.3489V19.0636C13.3489 20.5202 14.5155 21.6983 15.9578 21.6983H34.8286Z" fill="white"/>
<path d="M34.8281 0H16.0753V18.9373H34.8281V0Z" fill="white"/>
</g>
<defs>
<clipPath id="clip0_24_14">
<rect width="200" height="35" fill="white"/>
</clipPath>
</defs>
</svg>
