<svg width="362" height="69" viewBox="0 0 362 69" fill="none" xmlns="http://www.w3.org/2000/svg">
<path d="M31.0115 23.3571C31.2804 24.0939 30.6909 25.3009 30.2565 25.9174C28.7362 28.0859 21.6413 31.2888 19.0144 32.0622C9.40636 34.9099 4.03351 32.2607 0 29.6534C0.982522 16.3241 11.4283 7.07566 20.3744 2.93215C28.6586 -0.903089 37.7806 -1.05984 47.4041 2.95827C49.7725 3.94582 53.5837 5.90524 56.9346 9.16049C58.822 10.9945 56.4743 12.0082 52.8235 11.3289C47.9005 10.4145 46.2044 7.67133 37.5737 7.98483C32.7542 8.16249 24.7492 11.982 21.1346 15.1171C19.759 16.3137 17.37 18.6179 17.582 20.5565C18.0836 25.165 26.192 22.0665 28.8965 22.2076C29.7291 22.2494 30.6857 22.4793 31.0115 23.3571Z" fill="white"/>
<path d="M30.564 11.9832C34.6337 10.0917 38.0467 9.32887 42.1733 11.7167C42.9903 12.1922 47.9391 16.226 48.1667 16.8269C48.782 18.4415 44.8726 18.9117 43.8591 18.8334C38.9775 18.4571 35.3008 13.0178 30.564 11.9832Z" fill="white"/>
<path d="M31.0115 45.6429C31.2804 44.9061 30.6909 43.6991 30.2565 43.0826C28.7362 40.9141 21.6413 37.7111 19.0144 36.9378C9.40636 34.0901 4.03351 36.7393 0 39.3466C0.982522 52.6759 11.4283 61.9243 20.3744 66.0679C28.6586 69.9031 37.7806 70.0598 47.4041 66.0417C49.7725 65.0542 53.5837 63.0948 56.9346 59.8395C58.822 58.0055 56.4743 56.9918 52.8235 57.6711C47.9005 58.5855 46.2044 61.3287 37.5737 61.0152C32.7542 60.8375 24.7492 57.018 21.1346 53.8829C19.759 52.6863 17.37 50.3821 17.582 48.4435C18.0836 43.835 26.192 46.9335 28.8965 46.7924C29.7291 46.7506 30.6857 46.5207 31.0115 45.6429Z" fill="white"/>
<path d="M30.564 57.0129C34.6337 58.9044 38.0467 59.6672 42.1733 57.2794C42.9903 56.8039 47.9391 52.7701 48.1667 52.1692C48.782 50.5546 44.8726 50.0844 43.8591 50.1628C38.9775 50.539 35.3008 55.9783 30.564 57.0129Z" fill="white"/>
<path d="M66.7097 8.54847C65.9164 8.54847 65.1902 8.35924 64.531 7.9808C63.883 7.59122 63.3634 7.07364 62.9724 6.42805C62.5925 5.77133 62.4026 5.05339 62.4026 4.27423C62.4026 3.48395 62.5925 2.76601 62.9724 2.12042C63.3634 1.47483 63.883 0.962816 64.531 0.584368C65.1902 0.194789 65.9164 0 66.7097 0C67.3018 0 67.8549 0.111308 68.3688 0.333924C68.8939 0.556541 69.352 0.862639 69.7431 1.25222C70.1341 1.6418 70.4414 2.09816 70.6648 2.62131C70.8883 3.13333 71 3.6843 71 4.27423C71 5.05339 70.8045 5.77133 70.4134 6.42805C70.0336 7.07364 69.5196 7.59122 68.8716 7.9808C68.2236 8.35924 67.5029 8.54847 66.7097 8.54847ZM66.7097 7.58009C67.3242 7.58009 67.8772 7.43539 68.3688 7.14599C68.8716 6.85658 69.2738 6.46144 69.5755 5.96055C69.8771 5.45967 70.028 4.89756 70.028 4.27423C70.028 3.66204 69.8771 3.1055 69.5755 2.60461C69.2738 2.10372 68.8716 1.70858 68.3688 1.41918C67.8772 1.11865 67.3242 0.968382 66.7097 0.968382C66.084 0.968382 65.5198 1.11865 65.017 1.41918C64.5142 1.70858 64.112 2.10372 63.8103 2.60461C63.5198 3.1055 63.3746 3.66204 63.3746 4.27423C63.3746 4.88643 63.5198 5.44297 63.8103 5.94386C64.112 6.44474 64.5142 6.84545 65.017 7.14599C65.5198 7.43539 66.084 7.58009 66.7097 7.58009ZM65.0673 6.51153V2.00355H66.894C67.3633 2.00355 67.7487 2.13155 68.0504 2.38756C68.3521 2.63244 68.5029 2.98863 68.5029 3.45612C68.5029 3.75665 68.4358 4.01823 68.3018 4.24084C68.1789 4.45233 67.9889 4.61929 67.732 4.74173L68.7878 6.51153H67.6985L66.7935 4.92539H66.0393V6.51153H65.0673ZM66.0393 4.05718H66.894C67.0839 4.05718 67.2348 4.00153 67.3465 3.89022C67.4582 3.76778 67.5141 3.62308 67.5141 3.45612C67.5141 3.28916 67.4582 3.15002 67.3465 3.03871C67.2348 2.9274 67.0839 2.87175 66.894 2.87175H66.0393V4.05718Z" fill="white"/>
<path d="M91.0549 54.799C88.6626 54.799 86.8185 54.1013 85.5227 52.7058C84.2268 51.3102 83.5789 49.3166 83.5789 46.7249V31.5237H78.6447V27.7857H79.8907C81.0204 27.7857 81.9176 27.4202 82.5821 26.6892C83.2466 25.925 83.5789 24.9781 83.5789 23.8484V21.6055H87.3169V27.7857H93.198V31.5237H87.3169V46.7249C87.3169 47.6221 87.4498 48.4195 87.7156 49.1173C87.9814 49.7818 88.43 50.3134 89.0613 50.7122C89.7258 51.1109 90.6063 51.3102 91.7028 51.3102C91.9686 51.3102 92.2843 51.2936 92.6498 51.2604C93.0153 51.2272 93.3309 51.1939 93.5967 51.1607V54.5C93.198 54.5997 92.7495 54.6661 92.2511 54.6994C91.7527 54.7658 91.3539 54.799 91.0549 54.799ZM99.1637 54.5V16.7711H102.902V32.9691L102.054 32.7697C102.719 31.0419 103.799 29.6796 105.294 28.6828C106.822 27.686 108.583 27.1876 110.577 27.1876C112.471 27.1876 114.166 27.6196 115.661 28.4835C117.189 29.3474 118.385 30.5435 119.249 32.072C120.146 33.5672 120.595 35.2617 120.595 37.1557V54.5H116.857V38.601C116.857 36.9729 116.558 35.594 115.96 34.4643C115.362 33.3346 114.531 32.4707 113.468 31.8726C112.438 31.2413 111.258 30.9256 109.929 30.9256C108.6 30.9256 107.404 31.2413 106.341 31.8726C105.277 32.4707 104.43 33.3512 103.799 34.5141C103.201 35.6438 102.902 37.0061 102.902 38.601V54.5H99.1637ZM138.898 55.0981C136.406 55.0981 134.147 54.5 132.12 53.3038C130.126 52.0744 128.548 50.3965 127.385 48.27C126.222 46.1435 125.641 43.7345 125.641 41.0432C125.641 38.3518 126.206 35.9761 127.335 33.916C128.465 31.8228 129.994 30.178 131.921 28.9819C133.881 27.7857 136.074 27.1876 138.5 27.1876C140.427 27.1876 142.138 27.5531 143.633 28.2841C145.162 28.9819 146.457 29.9455 147.521 31.1748C148.584 32.371 149.398 33.7333 149.963 35.2617C150.528 36.7569 150.81 38.302 150.81 39.8969C150.81 40.2291 150.793 40.6112 150.76 41.0432C150.727 41.4419 150.677 41.8572 150.611 42.2892H128.033V38.8004H148.468L146.673 40.2956C146.972 38.4681 146.756 36.84 146.025 35.4112C145.328 33.9493 144.314 32.803 142.985 31.9723C141.656 31.1084 140.161 30.6764 138.5 30.6764C136.838 30.6764 135.293 31.1084 133.864 31.9723C132.469 32.8362 131.372 34.049 130.575 35.6106C129.778 37.139 129.462 38.9665 129.628 41.093C129.462 43.2195 129.794 45.0802 130.625 46.6751C131.489 48.2368 132.652 49.4495 134.114 50.3134C135.609 51.1773 137.204 51.6093 138.898 51.6093C140.859 51.6093 142.503 51.1441 143.832 50.2138C145.162 49.2834 146.241 48.1205 147.072 46.7249L150.262 48.4195C149.73 49.6157 148.916 50.7288 147.82 51.7588C146.723 52.7556 145.411 53.5697 143.882 54.201C142.387 54.799 140.726 55.0981 138.898 55.0981ZM176.087 55.0981C173.462 55.0981 171.153 54.4834 169.159 53.254C167.165 52.0246 165.604 50.3633 164.474 48.27C163.344 46.1435 162.779 43.7512 162.779 41.093C162.779 38.4349 163.344 36.0592 164.474 33.9659C165.604 31.8726 167.165 30.2279 169.159 29.0317C171.153 27.8023 173.462 27.1876 176.087 27.1876C177.748 27.1876 179.31 27.4867 180.772 28.0848C182.234 28.6828 183.53 29.4969 184.659 30.5269C185.789 31.5237 186.636 32.6867 187.201 34.0157L183.812 35.7601C183.147 34.3314 182.134 33.1684 180.772 32.2713C179.409 31.3742 177.848 30.9256 176.087 30.9256C174.326 30.9256 172.731 31.3742 171.302 32.2713C169.907 33.1352 168.793 34.348 167.963 35.9096C167.165 37.4381 166.767 39.1825 166.767 41.1429C166.767 43.07 167.165 44.8144 167.963 46.3761C168.793 47.9045 169.907 49.1173 171.302 50.0144C172.731 50.9115 174.326 51.3601 176.087 51.3601C177.848 51.3601 179.393 50.9115 180.722 50.0144C182.084 49.1173 183.114 47.9211 183.812 46.4259L187.201 48.27C186.636 49.5658 185.789 50.7288 184.659 51.7588C183.53 52.7888 182.234 53.6029 180.772 54.201C179.31 54.799 177.748 55.0981 176.087 55.0981ZM200.002 55.0981C198.308 55.0981 196.796 54.7824 195.467 54.1511C194.138 53.4866 193.091 52.5895 192.327 51.4598C191.563 50.33 191.181 49.0342 191.181 47.5722C191.181 46.1767 191.48 44.9141 192.078 43.7844C192.676 42.6214 193.606 41.6413 194.869 40.8438C196.131 40.0464 197.743 39.4815 199.703 39.1493L210.17 37.4049V40.794L200.6 42.3889C198.673 42.7211 197.278 43.3358 196.414 44.2329C195.583 45.1301 195.168 46.1933 195.168 47.4227C195.168 48.6189 195.633 49.6323 196.563 50.463C197.527 51.2936 198.756 51.709 200.251 51.709C202.079 51.709 203.674 51.3268 205.036 50.5626C206.398 49.7652 207.462 48.7019 208.226 47.3729C208.99 46.0438 209.372 44.5652 209.372 42.9371V36.1588C209.372 34.564 208.791 33.2681 207.628 32.2713C206.465 31.2745 204.953 30.7761 203.092 30.7761C201.464 30.7761 200.035 31.1915 198.806 32.0221C197.577 32.8196 196.663 33.8662 196.065 35.162L192.676 33.318C193.174 32.1883 193.955 31.1582 195.018 30.2279C196.115 29.2975 197.361 28.5665 198.756 28.0349C200.152 27.4701 201.597 27.1876 203.092 27.1876C205.053 27.1876 206.78 27.5697 208.276 28.334C209.804 29.0982 210.984 30.1614 211.814 31.5237C212.678 32.8528 213.11 34.3978 213.11 36.1588V54.5H209.372V49.1671L209.92 49.7154C209.455 50.7122 208.724 51.6259 207.727 52.4566C206.764 53.254 205.618 53.9019 204.288 54.4003C202.993 54.8655 201.564 55.0981 200.002 55.0981ZM219.802 54.5V27.7857H223.54V32.1716L223.042 31.5237C223.673 30.2611 224.62 29.2643 225.882 28.5333C227.178 27.8023 228.74 27.4368 230.567 27.4368H232.262V31.1748H229.919C227.992 31.1748 226.447 31.7729 225.284 32.9691C224.121 34.1652 223.54 35.8598 223.54 38.0528V54.5H219.802ZM247.807 55.0981C245.315 55.0981 243.055 54.5 241.028 53.3038C239.035 52.0744 237.457 50.3965 236.294 48.27C235.131 46.1435 234.549 43.7345 234.549 41.0432C234.549 38.3518 235.114 35.9761 236.244 33.916C237.373 31.8228 238.902 30.178 240.829 28.9819C242.789 27.7857 244.982 27.1876 247.408 27.1876C249.335 27.1876 251.046 27.5531 252.541 28.2841C254.07 28.9819 255.366 29.9455 256.429 31.1748C257.492 32.371 258.306 33.7333 258.871 35.2617C259.436 36.7569 259.718 38.302 259.718 39.8969C259.718 40.2291 259.702 40.6112 259.669 41.0432C259.635 41.4419 259.586 41.8572 259.519 42.2892H236.941V38.8004H257.376L255.582 40.2956C255.881 38.4681 255.665 36.84 254.934 35.4112C254.236 33.9493 253.223 32.803 251.894 31.9723C250.564 31.1084 249.069 30.6764 247.408 30.6764C245.747 30.6764 244.202 31.1084 242.773 31.9723C241.377 32.8362 240.281 34.049 239.483 35.6106C238.686 37.139 238.37 38.9665 238.536 41.093C238.37 43.2195 238.703 45.0802 239.533 46.6751C240.397 48.2368 241.56 49.4495 243.022 50.3134C244.517 51.1773 246.112 51.6093 247.807 51.6093C249.767 51.6093 251.412 51.1441 252.741 50.2138C254.07 49.2834 255.15 48.1205 255.98 46.7249L259.17 48.4195C258.639 49.6157 257.824 50.7288 256.728 51.7588C255.632 52.7556 254.319 53.5697 252.791 54.201C251.295 54.799 249.634 55.0981 247.807 55.0981ZM280.51 55.0981C278.815 55.0981 277.303 54.7824 275.974 54.1511C274.645 53.4866 273.598 52.5895 272.834 51.4598C272.07 50.33 271.688 49.0342 271.688 47.5722C271.688 46.1767 271.987 44.9141 272.585 43.7844C273.183 42.6214 274.113 41.6413 275.376 40.8438C276.639 40.0464 278.25 39.4815 280.21 39.1493L290.677 37.4049V40.794L281.108 42.3889C279.18 42.7211 277.785 43.3358 276.921 44.2329C276.09 45.1301 275.675 46.1933 275.675 47.4227C275.675 48.6189 276.14 49.6323 277.071 50.463C278.034 51.2936 279.264 51.709 280.759 51.709C282.586 51.709 284.181 51.3268 285.543 50.5626C286.906 49.7652 287.969 48.7019 288.733 47.3729C289.497 46.0438 289.879 44.5652 289.879 42.9371V36.1588C289.879 34.564 289.298 33.2681 288.135 32.2713C286.972 31.2745 285.46 30.7761 283.6 30.7761C281.971 30.7761 280.543 31.1915 279.313 32.0221C278.084 32.8196 277.17 33.8662 276.572 35.162L273.183 33.318C273.681 32.1883 274.462 31.1582 275.526 30.2279C276.622 29.2975 277.868 28.5665 279.264 28.0349C280.659 27.4701 282.104 27.1876 283.6 27.1876C285.56 27.1876 287.288 27.5697 288.783 28.334C290.311 29.0982 291.491 30.1614 292.322 31.5237C293.186 32.8528 293.617 34.3978 293.617 36.1588V54.5H289.879V49.1671L290.428 49.7154C289.963 50.7122 289.232 51.6259 288.235 52.4566C287.271 53.254 286.125 53.9019 284.796 54.4003C283.5 54.8655 282.071 55.0981 280.51 55.0981ZM300.309 64.468V27.7857H304.047V33.7665L303.449 32.7199C304.512 31.0253 305.925 29.6796 307.686 28.6828C309.48 27.686 311.523 27.1876 313.816 27.1876C316.341 27.1876 318.584 27.8023 320.544 29.0317C322.538 30.2279 324.1 31.8726 325.229 33.9659C326.392 36.0592 326.974 38.4515 326.974 41.1429C326.974 43.801 326.392 46.1933 325.229 48.3198C324.1 50.4131 322.538 52.0744 320.544 53.3038C318.584 54.5 316.341 55.0981 313.816 55.0981C311.523 55.0981 309.447 54.5831 307.586 53.553C305.758 52.4898 304.38 50.9946 303.449 49.0674L304.047 48.5192V64.468H300.309ZM313.617 51.3601C315.411 51.3601 317.006 50.9115 318.401 50.0144C319.83 49.1173 320.943 47.9045 321.74 46.3761C322.571 44.8144 322.986 43.07 322.986 41.1429C322.986 39.1825 322.571 37.4381 321.74 35.9096C320.943 34.3812 319.83 33.1684 318.401 32.2713C317.006 31.3742 315.411 30.9256 313.617 30.9256C311.822 30.9256 310.194 31.3742 308.732 32.2713C307.303 33.1684 306.157 34.3978 305.293 35.9595C304.463 37.4879 304.047 39.2157 304.047 41.1429C304.047 43.07 304.463 44.8144 305.293 46.3761C306.157 47.9045 307.303 49.1173 308.732 50.0144C310.194 50.9115 311.822 51.3601 313.617 51.3601ZM332.555 64.468V27.7857H336.293V33.7665L335.695 32.7199C336.759 31.0253 338.171 29.6796 339.932 28.6828C341.726 27.686 343.769 27.1876 346.062 27.1876C348.587 27.1876 350.83 27.8023 352.79 29.0317C354.784 30.2279 356.346 31.8726 357.475 33.9659C358.638 36.0592 359.22 38.4515 359.22 41.1429C359.22 43.801 358.638 46.1933 357.475 48.3198C356.346 50.4131 354.784 52.0744 352.79 53.3038C350.83 54.5 348.587 55.0981 346.062 55.0981C343.769 55.0981 341.693 54.5831 339.832 53.553C338.005 52.4898 336.626 50.9946 335.695 49.0674L336.293 48.5192V64.468H332.555ZM345.863 51.3601C347.657 51.3601 349.252 50.9115 350.647 50.0144C352.076 49.1173 353.189 47.9045 353.987 46.3761C354.817 44.8144 355.233 43.07 355.233 41.1429C355.233 39.1825 354.817 37.4381 353.987 35.9096C353.189 34.3812 352.076 33.1684 350.647 32.2713C349.252 31.3742 347.657 30.9256 345.863 30.9256C344.068 30.9256 342.44 31.3742 340.978 32.2713C339.55 33.1684 338.403 34.3978 337.539 35.9595C336.709 37.4879 336.293 39.2157 336.293 41.1429C336.293 43.07 336.709 44.8144 337.539 46.3761C338.403 47.9045 339.55 49.1173 340.978 50.0144C342.44 50.9115 344.068 51.3601 345.863 51.3601Z" fill="white"/>
</svg>
