<svg width="200" height="46" viewBox="0 0 200 46" fill="none" xmlns="http://www.w3.org/2000/svg">
<g clip-path="url(#clip0_24_44)">
<path d="M60.629 13.2846V26.8171C60.629 28.3277 61.0025 29.4711 61.7496 30.2474C62.5174 31.0237 63.6069 31.4118 65.018 31.4118C66.4291 31.4118 67.5186 31.0237 68.2864 30.2474C69.0542 29.4711 69.4381 28.3277 69.4381 26.8171V13.2846H73.796V26.8171C73.796 28.6844 73.381 30.2684 72.5509 31.5692C71.7416 32.87 70.6625 33.8456 69.3136 34.496C67.9855 35.1464 66.5225 35.4716 64.9246 35.4716C63.3475 35.4716 61.8948 35.1464 60.5667 34.496C59.2594 33.8456 58.2114 32.87 57.4228 31.5692C56.6342 30.2684 56.24 28.6844 56.24 26.8171V13.2846H60.629Z" fill="white"/>
<path d="M88.1143 17.5646C89.4009 17.5646 90.5423 17.8583 91.5384 18.4458C92.5552 19.0123 93.3542 19.862 93.9352 20.9949C94.5163 22.1069 94.8068 23.4392 94.8068 24.9918V35.2513H90.4489V25.6212C90.4489 24.2574 90.1065 23.2189 89.4217 22.5056C88.7369 21.7712 87.803 21.4041 86.6202 21.4041C85.4373 21.4041 84.4931 21.7712 83.7876 22.5056C83.1028 23.2189 82.7603 24.2574 82.7603 25.6212V35.2513H78.3713V17.8164H82.7603V20.4285C83.2999 19.5053 84.0262 18.8025 84.9393 18.3199C85.8731 17.8164 86.9315 17.5646 88.1143 17.5646Z" fill="white"/>
<path d="M98.8488 13.379C98.8488 12.6237 99.1082 11.9838 99.627 11.4592C100.146 10.9347 100.768 10.6725 101.495 10.6725C102.242 10.6725 102.875 10.9347 103.393 11.4592C103.912 11.9838 104.172 12.6237 104.172 13.379C104.172 14.1343 103.912 14.7742 103.393 15.2987C102.875 15.8232 102.242 16.0855 101.495 16.0855C100.768 16.0855 100.146 15.8232 99.627 15.2987C99.1082 14.7742 98.8488 14.1343 98.8488 13.379ZM103.705 17.8164V35.2513H99.3157V17.8164H103.705Z" fill="white"/>
<path d="M118.273 12.9698C120.639 12.9698 122.735 13.5783 124.561 14.7952C126.408 16.012 127.725 17.722 128.514 19.9249H123.253C122.278 17.9947 120.618 17.0296 118.273 17.0296C116.966 17.0296 115.804 17.3233 114.787 17.9108C113.791 18.4982 113.012 19.3375 112.452 20.4285C111.892 21.5195 111.612 22.7783 111.612 24.205C111.612 25.6317 111.892 26.8905 112.452 27.9815C113.012 29.0725 113.791 29.9222 114.787 30.5307C115.804 31.1181 116.966 31.4118 118.273 31.4118C120.597 31.4118 122.257 30.4467 123.253 28.5165H128.514C127.725 30.7195 126.408 32.4294 124.561 33.6463C122.735 34.8422 120.639 35.4401 118.273 35.4401C116.239 35.4401 114.372 34.9681 112.67 34.0239C110.968 33.0588 109.619 31.7266 108.623 30.0271C107.648 28.3067 107.16 26.366 107.16 24.205C107.16 22.065 107.648 20.1452 108.623 18.4458C109.619 16.7254 110.968 15.3826 112.67 14.4175C114.372 13.4524 116.239 12.9698 118.273 12.9698Z" fill="white"/>
<path d="M142.041 17.5646C143.327 17.5646 144.469 17.8583 145.465 18.4458C146.482 19.0123 147.281 19.862 147.862 20.9949C148.443 22.1069 148.733 23.4392 148.733 24.9918V35.2513H144.375V25.6212C144.375 24.2574 144.033 23.2189 143.348 22.5055C142.663 21.7712 141.73 21.4041 140.547 21.4041C139.364 21.4041 138.42 21.7712 137.714 22.5055C137.029 23.2189 136.687 24.2574 136.687 25.6212V35.2513H132.298V11.9628H136.687V20.4285C137.226 19.5053 137.953 18.8025 138.866 18.3199C139.8 17.8164 140.858 17.5646 142.041 17.5646Z" fill="white"/>
<path d="M160.028 17.5646C161.252 17.5646 162.342 17.8269 163.296 18.3514C164.251 18.8759 165.019 19.5997 165.6 20.5229V17.8164H169.958V35.2513H165.6V32.3245C164.998 33.3106 164.22 34.0869 163.265 34.6534C162.332 35.2198 161.252 35.5031 160.028 35.5031C158.555 35.5031 157.206 35.1254 155.981 34.3701C154.778 33.5938 153.813 32.5238 153.087 31.1601C152.381 29.7963 152.028 28.2438 152.028 26.5024C152.028 24.761 152.381 23.2189 153.087 21.8761C153.813 20.5124 154.778 19.4529 155.981 18.6976C157.206 17.9423 158.555 17.5646 160.028 17.5646ZM161.024 21.4041C160.256 21.4041 159.52 21.6034 158.814 22.002C158.129 22.4006 157.569 22.9881 157.133 23.7644C156.697 24.5197 156.479 25.4324 156.479 26.5024C156.479 27.5724 156.697 28.506 157.133 29.3033C157.569 30.0796 158.129 30.667 158.814 31.0657C159.52 31.4643 160.256 31.6636 161.024 31.6636C161.813 31.6636 162.549 31.4643 163.234 31.0657C163.94 30.667 164.51 30.0796 164.946 29.3033C165.382 28.527 165.6 27.6039 165.6 26.5338C165.6 25.4638 165.382 24.5407 164.946 23.7644C164.51 22.9881 163.94 22.4006 163.234 22.002C162.549 21.6034 161.813 21.4041 161.024 21.4041Z" fill="white"/>
<path d="M183.39 31.5377V35.2513H180.62C178.856 35.2513 177.497 34.8422 176.542 34.0239C175.587 33.2057 175.11 31.8524 175.11 29.9642V21.4355H173.274V17.8164H175.11V14.2817L179.499 13.5049V17.8164H183.359V21.4355H179.499V29.9642C179.499 30.5307 179.634 30.9398 179.904 31.1915C180.174 31.4223 180.641 31.5377 181.305 31.5377H183.39Z" fill="white"/>
<path d="M192.965 17.5646C194.937 17.5646 196.555 18.0786 197.821 19.1067C199.087 20.1138 199.761 21.488 199.844 23.2294H195.362C195.237 21.7607 194.345 21.0264 192.685 21.0264C191.855 21.0264 191.212 21.1943 190.755 21.5299C190.299 21.8656 190.07 22.3062 190.07 22.8517C190.07 23.3133 190.236 23.6805 190.568 23.9532C190.9 24.226 191.305 24.4463 191.782 24.6141C192.28 24.761 192.986 24.9393 193.899 25.1491C195.165 25.4219 196.202 25.7156 197.012 26.0303C197.842 26.324 198.547 26.8066 199.128 27.478C199.709 28.1284 200 29.0305 200 30.1845C200 31.2335 199.699 32.1567 199.097 32.9539C198.496 33.7512 197.665 34.3806 196.607 34.8422C195.549 35.2828 194.356 35.5031 193.027 35.5031C190.952 35.5031 189.261 35.0205 187.954 34.0554C186.646 33.0693 185.93 31.6636 185.806 29.8383H190.288C190.371 30.5516 190.651 31.0971 191.129 31.4748C191.606 31.8524 192.249 32.0413 193.059 32.0413C193.868 32.0413 194.522 31.8629 195.02 31.5063C195.518 31.1286 195.767 30.6565 195.767 30.0901C195.767 29.6285 195.601 29.2613 195.269 28.9886C194.937 28.6948 194.522 28.4745 194.023 28.3277C193.525 28.1598 192.809 27.971 191.876 27.7612C190.61 27.4885 189.572 27.2052 188.763 26.9115C187.974 26.6178 187.29 26.1562 186.708 25.5268C186.127 24.8764 185.837 24.0057 185.837 22.9147C185.837 21.9496 186.117 21.0579 186.677 20.2396C187.238 19.4214 188.057 18.771 189.136 18.2884C190.216 17.8059 191.492 17.5646 192.965 17.5646Z" fill="white"/>
<path d="M45.2625 22.8049C45.2625 26.4657 44.4057 29.932 42.8816 33.0122C42.565 33.6521 42.0121 34.167 41.3158 34.2944C40.5058 34.4425 39.6971 34.3619 38.9588 33.8172C36.8619 32.3253 38.6616 27.7954 39.1732 25.9482C39.7092 24.0405 40.4168 21.591 40.4168 19.5099C40.4168 16.6306 38.8111 14.2646 36.0213 13.4835C32.9832 12.6734 30.8643 15.4216 29.5461 17.754C28.3453 19.8567 27.1018 22.7832 25.9225 25.3195C25.266 26.7499 22.4908 33.3619 20.7123 33.3619C19.1337 33.3619 20.2339 28.1278 20.3692 27.4439C20.7123 25.6447 21.2912 23.2168 21.5485 21.4392C21.6771 20.5071 21.7629 19.4449 21.6557 18.4477C21.3584 15.743 18.9797 13.6606 16.2739 13.7003C12.2097 13.7616 9.3872 18.1228 7.52588 21.2008C6.62136 22.6965 6.90409 24.3223 8.212 25.2545C9.49848 26.1866 11.148 25.8737 12.2215 24.5608C14.2584 22.0696 15.1336 20.7377 16.0388 19.4642C15.6044 21.8088 15.1496 24.0894 14.7087 26.3817C14.3228 28.4628 13.9368 30.9557 14.2584 33.1668C14.43 34.3157 14.8159 35.5514 15.6092 36.6353C16.4454 37.7625 17.6033 38.5646 18.997 38.9764C22.5562 40.0386 25.2149 37.5674 26.7587 35.573C30.1828 31.1792 32.1066 25.5614 34.5633 20.5938C34.0061 24.2154 32.3795 27.5823 32.312 31.3025C32.2155 35.0435 34.252 38.5574 37.8438 39.7352C33.8343 43.3987 28.5169 45.6315 22.7063 45.6315C18.8254 45.6315 15.159 44.6343 11.9857 42.9001L0 46L3.19475 34.2724C1.26503 30.9123 0.150089 26.9887 0.150089 22.8049C0.128648 10.2102 10.2489 0 22.7063 0C35.1637 0 45.2625 10.2102 45.2625 22.8049Z" fill="white"/>
</g>
<defs>
<clipPath id="clip0_24_44">
<rect width="200" height="46" fill="white"/>
</clipPath>
</defs>
</svg>
