<svg width="200" height="44" viewBox="0 0 200 44" fill="none" xmlns="http://www.w3.org/2000/svg">
<path d="M41.3635 27.9297C39.7762 30.192 37.8743 32.0181 35.8207 33.0506C33.7672 34.0831 31.2075 34.4334 28.9838 32.9419C26.8487 31.5019 26.2624 29.3411 26.231 27.4721C26.221 26.6184 26.3311 25.7046 26.4827 24.8623C26.4269 24.9967 26.3711 25.1312 26.2939 25.2642C25.4931 27.1675 24.5121 29.334 23.3395 30.9342C22.2698 32.3799 20.2578 34.4749 17.3376 33.7184C16.2279 33.4339 15.277 32.8604 14.5777 31.9824C13.8984 31.1515 13.5738 30.1834 13.4022 29.3426C13.1019 27.7081 13.3021 25.8333 13.5409 24.3747C13.8212 22.6658 14.02 21.4818 14.193 20.3177C13.6124 21.0384 12.5785 22.3255 11.1671 24.3704C10.2976 25.6002 8.7918 26.0478 7.53338 25.2456C6.36505 24.4962 6.01469 22.9046 6.74258 21.7106C8.23552 19.1408 9.76279 17.0816 11.4788 15.9333C12.374 15.3269 13.4637 14.8965 14.6864 14.8894C15.9076 14.8822 16.9816 15.3498 17.8567 16.0319C18.9078 16.8199 19.2224 17.9253 19.3554 18.6718C19.4627 19.4397 19.4312 20.2205 19.3611 20.9083C19.2253 22.1896 18.8721 23.9628 18.6704 25.1927C18.4302 26.6513 18.3773 27.7295 18.4917 28.4059C18.5088 28.4989 18.526 28.5704 18.5446 28.6404C18.6676 28.5332 18.8663 28.3172 19.1466 27.9454C19.9117 26.8929 20.6953 25.2413 21.5219 23.295C22.2927 21.5046 23.1078 19.3954 23.9301 17.8395C24.329 17.0844 24.8496 16.2207 25.4945 15.5743C26.1137 14.9494 27.355 14.0213 29.0338 14.3931C30.1464 14.632 31.166 15.2097 31.8567 16.2036C32.5288 17.1488 32.7104 18.1755 32.7447 19.0078C32.7977 20.5551 32.3243 22.3898 32.0011 23.7269C31.6165 25.267 31.3505 26.1465 31.3748 27.116C31.4077 27.9712 31.5993 28.1914 31.8195 28.3458C35.2258 30.2378 43.8605 17.0172 39.8019 9.94293C35.958 3.96258 29.2455 0 21.6091 0C9.67413 0 0 9.67408 0 21.609C0 25.5788 1.07109 29.2982 2.94013 32.4958L0 43.2166L10.8725 40.3652C14.0357 42.1799 17.7009 43.2166 21.6091 43.2166C32.1785 43.2166 40.9745 35.6275 42.8479 25.6016C42.386 26.431 41.8898 27.2104 41.3635 27.9297Z" fill="white"/>
<path d="M60.2211 31.9874H54.6498L48.7411 10.8046H53.8844L57.5892 25.6325L61.7219 10.8046H65.7016L69.8344 25.6325L73.5392 10.8046H78.6824L72.7738 31.9874H67.2025L63.7132 19.4892L60.2239 31.9874H60.2211Z" fill="white"/>
<path d="M91.9362 30.1128C90.3843 31.6455 88.4668 32.4132 86.1807 32.4132C83.8946 32.4132 81.9757 31.6469 80.4252 30.1128C78.8534 28.5591 78.0682 26.6636 78.0682 24.4234C78.0682 22.1833 78.8534 20.3186 80.4252 18.7649C81.9969 17.2112 83.9145 16.4351 86.1807 16.4351C88.4469 16.4351 90.3645 17.2126 91.9362 18.7649C93.508 20.3186 94.2932 22.2043 94.2932 24.4234C94.2932 26.6426 93.508 28.5591 91.9362 30.1128ZM82.6616 24.4234C82.6616 25.4728 82.9989 26.3302 83.6721 26.9956C84.3453 27.6611 85.1829 27.9945 86.1821 27.9945C87.1813 27.9945 88.0189 27.6611 88.6921 26.9956C89.3653 26.3302 89.7026 25.4728 89.7026 24.4234C89.7026 23.3741 89.3653 22.5167 88.6921 21.8512C88.0189 21.1858 87.1813 20.8523 86.1821 20.8523C85.1829 20.8523 84.3453 21.1858 83.6721 21.8512C82.9989 22.5167 82.6616 23.3755 82.6616 24.4234Z" fill="white"/>
<path d="M101.488 16.8585V19.5512C101.773 18.6027 102.34 17.8672 103.188 17.3419C104.034 16.8179 104.999 16.5545 106.08 16.5545V21.6989C104.937 21.5168 103.886 21.7087 102.927 22.2733C101.967 22.8183 101.488 23.7766 101.488 25.1481V31.9877H96.8964V16.8571H101.488V16.8585Z" fill="white"/>
<path d="M117.192 24.4221L122.917 31.9874H117.712L112.814 25.2991V31.9874H108.222V10.8046H112.814V23.4834L117.406 16.8568H122.763L117.192 24.4221Z" fill="white"/>
<path d="M131.028 32.4105C128.701 32.4105 126.762 31.6442 125.211 30.1101C123.681 28.5774 122.915 26.6805 122.915 24.4207C122.915 22.1609 123.681 20.2654 125.211 18.7313C126.762 17.1986 128.701 16.4309 131.028 16.4309C132.476 16.4309 133.824 16.784 135.069 17.49C136.313 18.1961 137.272 19.1348 137.946 20.3046L133.935 22.605C133.383 21.4758 132.394 20.9098 130.966 20.9098C129.965 20.9098 129.139 21.2377 128.485 21.8933C127.832 22.549 127.506 23.391 127.506 24.4207C127.506 25.4504 127.832 26.2924 128.485 26.9481C129.139 27.6037 129.965 27.9316 130.966 27.9316C132.414 27.9316 133.405 27.367 133.935 26.2364L137.946 28.506C137.272 29.7164 136.317 30.6691 135.083 31.3654C133.848 32.0616 132.496 32.4091 131.026 32.4091L131.028 32.4105Z" fill="white"/>
<path d="M148.754 16.4337C150.407 16.4337 151.764 16.9885 152.826 18.0981C153.929 19.2287 154.478 20.7613 154.478 22.6975V31.9874H149.886V23.363C149.886 22.4957 149.641 21.8191 149.152 21.3357C148.663 20.8524 148.02 20.61 147.223 20.61C146.325 20.61 145.626 20.8776 145.126 21.4114C144.626 21.9466 144.376 22.7185 144.376 23.7258V31.9874H139.784V10.8046H144.376V18.2788C145.294 17.0487 146.753 16.4323 148.754 16.4323V16.4337Z" fill="white"/>
<path d="M168.743 18.2801V16.8582H173.335V31.9887H168.743V30.5667C167.682 31.7982 166.161 32.4132 164.182 32.4132C162.204 32.4132 160.436 31.6469 159.009 30.1128C157.581 28.5802 156.866 26.6832 156.866 24.4234C156.866 22.1637 157.581 20.2976 159.009 18.7649C160.458 17.2112 162.183 16.4351 164.182 16.4351C166.182 16.4351 167.683 17.0501 168.743 18.2815V18.2801ZM161.457 24.4234C161.457 25.554 161.794 26.4507 162.467 27.1161C163.141 27.7816 164.018 28.115 165.101 28.115C166.183 28.115 167.059 27.7816 167.734 27.1161C168.409 26.4507 168.744 25.5526 168.744 24.4234C168.744 23.2943 168.407 22.3962 167.734 21.7308C167.061 21.0653 166.182 20.7319 165.101 20.7319C164.019 20.7319 163.142 21.0653 162.467 21.7308C161.793 22.3962 161.457 23.2943 161.457 24.4234Z" fill="white"/>
<path d="M185.673 16.8568V21.2139H182.519V26.5698C182.519 27.1554 182.753 27.5337 183.224 27.7046C183.693 27.8769 184.509 27.9316 185.673 27.8713V31.9874C182.775 32.29 180.754 32.0182 179.611 31.1706C178.489 30.3034 177.928 28.7707 177.928 26.5712V21.2153H175.478V16.8582H177.928V13.9834L182.519 12.6216V16.8582H185.673V16.8568Z" fill="white"/>
<path d="M192.468 21.2768C192.468 21.5388 192.682 21.7658 193.112 21.9577C193.54 22.1497 194.214 22.3668 195.133 22.6078C198.398 23.3139 200.021 24.9278 200 27.4496C200 29.0831 199.388 30.3244 198.163 31.172C196.919 31.9985 195.408 32.4132 193.632 32.4132C190.408 32.4132 188.214 31.2126 187.05 28.8127L191.03 26.574C191.438 27.7648 192.305 28.3588 193.632 28.3588C194.735 28.3588 195.285 28.0464 195.285 27.4201C195.285 26.976 194.397 26.5333 192.621 26.0892C191.968 25.9071 191.407 25.7208 190.938 25.5288C190.469 25.3369 189.963 25.0651 189.423 24.7121C188.881 24.359 188.469 23.9009 188.183 23.3349C187.896 22.7703 187.755 22.1244 187.755 21.3987C187.755 19.845 188.326 18.6248 189.469 17.7366C190.612 16.8694 192.04 16.4351 193.755 16.4351C196.428 16.4351 198.418 17.5152 199.725 19.6727L195.806 21.7602C195.316 20.8734 194.633 20.4293 193.755 20.4293C192.878 20.4293 192.47 20.7123 192.47 21.2768H192.468Z" fill="white"/>
</svg>
